<?xml version="1.0" encoding="utf-8"?>
<!-- Generator: Adobe Illustrator 16.0.4, SVG Export Plug-In . SVG Version: 6.00 Build 0)  -->
<!DOCTYPE svg PUBLIC "-//W3C//DTD SVG 1.1//EN" "http://www.w3.org/Graphics/SVG/1.1/DTD/svg11.dtd">
<svg version="1.1" id="Layer_1" xmlns="http://www.w3.org/2000/svg" xmlns:xlink="http://www.w3.org/1999/xlink" x="0px" y="0px"
	 width="160px" height="160px" viewBox="0 0 160 160" enable-background="new 0 0 160 160" xml:space="preserve">
<g>
	<g>
		<g>
			<polygon fill-rule="evenodd" clip-rule="evenodd" fill="#BCA45F" points="68.172,38.288 52.405,38.288 52.405,54.056 
				52.988,54.056 52.988,38.872 68.172,38.872 			"/>
			<polygon fill-rule="evenodd" clip-rule="evenodd" fill="#BCA45F" points="44.814,30.696 44.814,54.056 45.397,54.056 
				45.397,31.28 68.172,31.28 68.172,30.696 			"/>
			<g>
				<path fill-rule="evenodd" clip-rule="evenodd" fill="#BCA45F" d="M48.562,39.048c-0.832-0.605-1.615-0.994-1.911-2.045
					c-0.245-0.861-0.363-1.628,0.251-2.281c0.404-0.43,0.8-0.602,1.393-0.602c-0.019-0.457,0.071-0.753,0.344-1.121
					c0.271-0.367,0.527-0.529,0.963-0.659c0.674-0.2,1.347,0.093,2.066,0.507c0.742,0.426,1.094,1.038,1.512,1.592l-0.129,0.057
					c-0.154-0.244-1.699-2.105-3.26-1.928c-0.295,0.034-0.581,0.312-0.697,0.673c-0.148,0.466-0.009,0.965,0.432,1.179
					c0.232,0.111,0.422,0.152,0.658,0.051c0.159-0.068,0.244-0.144,0.331-0.291c-0.235,0.153-0.509,0.135-0.722-0.052
					c-0.181-0.157-0.247-0.351-0.191-0.583c0.043-0.182,0.129-0.291,0.292-0.38c0.177-0.099,0.328-0.095,0.519-0.026
					c0.33,0.119,0.465,0.438,0.434,0.787c-0.034,0.339-0.237,0.539-0.547,0.684c-0.301,0.142-0.596,0.152-0.854-0.009
					c-0.292-0.174-0.496-0.538-0.526-0.967c-0.021-0.304,0.104-0.496,0.176-0.761c-0.297,0.256-0.505,0.551-0.518,0.988
					c-0.022,0.649,0.541,1.064,1,1.331c0.336,0.075,0.63-0.063,0.926-0.088c0.594,0.021,1.084,0.262,1.434,0.659
					c-0.197,0.195-0.577,0.119-0.889,0.113c-0.388-0.061-0.755-0.248-1.166-0.418c-0.019,0.034-0.042,0.091-0.038,0.102
					c0.44,0.506,1.075,0.566,1.47,0.988c0.225,0.318,0.336,0.672,0.406,1.002l-0.076,0.037c-0.362-0.224-0.921-0.17-1.19-0.672
					c-0.187-0.436-0.348-0.951-0.786-1.317c-0.049,0.088-0.004,0.218,0.012,0.267c0.303,0.591,0.493,1.242,0.33,1.913
					c-0.023,0.083-0.096,0.022-0.152-0.024c-0.306-0.352-0.556-0.757-0.596-1.281c0.028-0.337,0.104-0.701,0.178-1.064
					c-0.154-0.396-0.625-0.608-0.951-0.925c-0.633-0.345-1.331,0.329-1.331,0.329s0.8-0.193,1.128-0.025
					c0.274,0.114,0.451,0.26,0.559,0.545c0.141,0.376,0.055,0.729-0.241,1.002c-0.211,0.194-0.414,0.295-0.696,0.24
					c-0.225-0.043-0.366-0.133-0.483-0.33c-0.122-0.209-0.16-0.412-0.038-0.621c0.097-0.162,0.219-0.238,0.406-0.266
					c0.195-0.029,0.344,0.012,0.482,0.152c0.152,0.155,0.205,0.379,0.127,0.545c0.012,0.088-0.057,0.17-0.037,0.189
					c0.301-0.099,0.393-0.412,0.353-0.734c-0.039-0.168-0.13-0.375-0.341-0.52c-0.202-0.108-0.506-0.203-0.799-0.114
					c-0.33,0.142-0.724,0.503-0.786,0.874c-0.124,1.453,0.812,2.504,1.901,3.274C48.718,39.11,48.621,39.079,48.562,39.048z"/>
				<path fill-rule="evenodd" clip-rule="evenodd" fill="#BCA45F" d="M46.482,48.987c0.165,1.342,0.924,2.088,1.281,3.221
					c0.309,0.77,1.799,1.812,1.799,1.812s-0.013-0.355-0.215-1.04c-0.353-1.151-1.242-1.161-1.775-1.749
					c-0.127-0.2-0.257-0.387-0.252-0.57c0.064-0.066,0.147,0.054,0.252,0.114c0.408,0.237,0.762,0.624,1.154,1.026
					c0.542,0.547,1.264,0.749,2.092,0.773c0.036-0.033,0.014-0.101,0.025-0.127c-0.392-0.426-0.764-0.916-1.23-1.128
					c-0.876-0.295-1.922-0.302-2.434-1.141c-0.328-0.405-0.614-0.87-0.469-1.345c0.463,0.566,0.811,1.452,1.623,1.75
					c0.891,0.316,1.945,0.082,2.674-0.533c0.362-0.334,0.635-0.654,0.748-1.19c0.104-0.487-0.023-0.913-0.139-1.269
					c-0.592,0.491-0.646,1.297-0.571,2.12c-0.265,0.28-0.559,0.594-0.887,0.682l-0.024-0.038c0.691-0.969,1.149-2.27,0.696-3.447
					c-0.151-0.367-0.414-0.674-0.634-0.95c-0.074-0.019-0.117-0.062-0.141-0.013c-0.055,0.378-0.351,0.771-0.088,1.178
					c0.426,0.688,0.705,1.631,0.443,2.484l-0.127,0.231c0.077-0.442,0.058-0.701,0.037-1.042c-0.061-1.111-0.483-1.429-1.178-1.698
					c-0.009,0.319-0.017,0.726,0.104,1.077c0.125,0.683,1.268,1.161,0.695,2.003c-0.343,0.418-0.909,0.399-1.357,0.329
					c-0.568-0.162-1.048-0.783-1.048-0.783c0.226,0.141,0.392,0.187,0.659,0.179c0.169-0.005,0.201-0.04,0.43-0.093
					c-0.506-0.947-1.249-0.805-1.799-1.352c-0.328-0.325-0.297-1.023,0.061-1.475c0.238-0.301,0.48-0.482,0.861-0.469
					c0.339,0.012,0.572,0.13,0.762,0.418c0.123,0.152,0.167,0.437,0.05,0.671c-0.055,0.11-0.105,0.169-0.206,0.241
					c0.054-0.134,0.062-0.228,0.027-0.367c-0.051-0.219-0.165-0.362-0.377-0.432c-0.172-0.055-0.307-0.044-0.457,0.052
					c-0.218,0.136-0.273,0.371-0.217,0.62c0.055,0.239,0.203,0.369,0.432,0.457c0.35,0.135,0.681-0.035,0.9-0.338
					c0.264-0.362,0.159-0.822-0.102-1.146c-0.201-0.249-0.555-0.394-0.949-0.362c-0.524,0.043-0.811,0.387-1.04,0.861
					c-0.167,0.345-0.129,0.589-0.141,0.972C46.422,48.485,46.444,48.669,46.482,48.987z"/>
				<path fill-rule="evenodd" clip-rule="evenodd" fill="#BCA45F" d="M47.688,49.647c0.211,0.07,0.401,0.114,0.57,0
					c-0.379-0.275-0.72-0.654-1.154-0.635C47.182,49.269,47.369,49.54,47.688,49.647z"/>
				<path fill-rule="evenodd" clip-rule="evenodd" fill="#BCA45F" d="M48.893,53.272c0.143,0.127,0.234,0.206,0.43,0.241
					c-0.054-0.367-0.358-0.627-0.52-0.9c-0.354-0.403-1.164-1.112-1.164-1.112C47.955,52.312,48.234,52.69,48.893,53.272z"/>
				<path fill-rule="evenodd" clip-rule="evenodd" fill="#BCA45F" d="M49.057,51.802c0.262,0.329,0.939,0.484,1.408,0.496
					c-0.454-0.469-1.188-0.668-1.674-1.003c-0.219-0.096-0.425-0.178-0.598-0.19C48.488,51.45,48.787,51.465,49.057,51.802z"/>
				<path fill-rule="evenodd" clip-rule="evenodd" fill="#BCA45F" d="M49.639,48.447c0.353,0.319,0.368,0.71,0.532,0.976
					c0,0-0.101-1.547-0.823-1.939C49.348,47.483,49.26,48.104,49.639,48.447z"/>
				<path fill-rule="evenodd" clip-rule="evenodd" fill="#BCA45F" d="M50.717,48.685c0.064-0.008,0.484-0.908-0.443-2.206
					c-0.074-0.03-0.111,0.022-0.09,0.075C50.158,47.321,50.643,47.903,50.717,48.685z"/>
				<path fill-rule="evenodd" clip-rule="evenodd" fill="#BCA45F" d="M51.225,49.559c0.531-0.697,0.291-1.567,0.291-1.567
					S51.084,48.599,51.225,49.559z"/>
				<circle fill-rule="evenodd" clip-rule="evenodd" fill="#BCA45F" cx="47.99" cy="47.577" r="0.27"/>
				<path fill-rule="evenodd" clip-rule="evenodd" fill="#BCA45F" d="M51.702,42.663c-0.164-1.342-0.923-2.088-1.28-3.221
					c-0.309-0.771-1.799-1.812-1.799-1.812s0.012,0.355,0.216,1.04c0.352,1.151,1.241,1.161,1.773,1.749
					c0.128,0.2,0.259,0.387,0.254,0.57c-0.065,0.066-0.147-0.054-0.254-0.114c-0.406-0.237-0.762-0.623-1.152-1.026
					c-0.542-0.547-1.265-0.749-2.091-0.773c-0.038,0.033-0.016,0.101-0.027,0.127c0.392,0.426,0.766,0.917,1.23,1.128
					c0.877,0.296,1.922,0.302,2.434,1.142c0.326,0.404,0.615,0.869,0.469,1.343c-0.46-0.565-0.809-1.451-1.621-1.749
					c-0.891-0.316-1.944-0.082-2.676,0.532c-0.362,0.335-0.635,0.655-0.749,1.191c-0.102,0.487,0.026,0.913,0.141,1.268
					c0.591-0.49,0.647-1.296,0.571-2.119c0.265-0.28,0.559-0.594,0.886-0.682l0.026,0.038c-0.693,0.969-1.152,2.27-0.697,3.447
					c0.15,0.367,0.413,0.674,0.635,0.951c0.071,0.018,0.117,0.062,0.138,0.012c0.055-0.377,0.354-0.771,0.09-1.178
					c-0.429-0.688-0.707-1.631-0.444-2.485l0.127-0.229c-0.076,0.441-0.057,0.7-0.038,1.041c0.063,1.11,0.485,1.43,1.179,1.699
					c0.01-0.32,0.016-0.726-0.101-1.078c-0.128-0.683-1.27-1.16-0.699-2.002c0.343-0.419,0.91-0.4,1.358-0.33
					c0.57,0.162,1.049,0.783,1.049,0.783c-0.227-0.141-0.393-0.186-0.66-0.18c-0.17,0.006-0.201,0.041-0.427,0.094
					c0.504,0.947,1.246,0.805,1.797,1.352c0.327,0.326,0.296,1.023-0.062,1.475c-0.236,0.3-0.479,0.482-0.861,0.469
					c-0.339-0.012-0.572-0.13-0.761-0.418c-0.125-0.152-0.168-0.437-0.051-0.671c0.056-0.11,0.106-0.169,0.207-0.241
					c-0.055,0.133-0.062,0.228-0.028,0.367c0.051,0.219,0.166,0.362,0.38,0.432c0.169,0.055,0.305,0.045,0.456-0.051
					c0.217-0.138,0.271-0.372,0.215-0.621c-0.055-0.239-0.202-0.369-0.432-0.457c-0.35-0.135-0.68,0.035-0.9,0.338
					c-0.264,0.363-0.158,0.822,0.103,1.146c0.2,0.249,0.554,0.395,0.949,0.362c0.524-0.043,0.81-0.387,1.039-0.861
					c0.168-0.344,0.129-0.589,0.141-0.972C51.765,43.164,51.742,42.982,51.702,42.663z"/>
				<path fill-rule="evenodd" clip-rule="evenodd" fill="#BCA45F" d="M50.498,42.003c-0.211-0.07-0.4-0.114-0.57,0
					c0.38,0.275,0.723,0.655,1.153,0.635C51.003,42.383,50.815,42.11,50.498,42.003z"/>
				<path fill-rule="evenodd" clip-rule="evenodd" fill="#BCA45F" d="M49.295,38.379c-0.144-0.128-0.233-0.207-0.433-0.241
					c0.056,0.367,0.358,0.626,0.521,0.899c0.354,0.404,1.164,1.112,1.164,1.112C50.232,39.339,49.952,38.96,49.295,38.379z"/>
				<path fill-rule="evenodd" clip-rule="evenodd" fill="#BCA45F" d="M49.131,39.849c-0.264-0.33-0.939-0.484-1.409-0.497
					c0.453,0.471,1.187,0.669,1.675,1.004c0.217,0.096,0.424,0.178,0.595,0.19C49.699,40.2,49.398,40.185,49.131,39.849z"/>
				<path fill-rule="evenodd" clip-rule="evenodd" fill="#BCA45F" d="M48.547,43.203c-0.352-0.319-0.367-0.71-0.533-0.975
					c0,0,0.102,1.545,0.824,1.938C48.838,44.167,48.925,43.546,48.547,43.203z"/>
				<path fill-rule="evenodd" clip-rule="evenodd" fill="#BCA45F" d="M47.469,42.967c-0.064,0.008-0.482,0.908,0.444,2.206
					c0.074,0.03,0.112-0.023,0.089-0.076C48.027,44.329,47.545,43.747,47.469,42.967z"/>
				<path fill-rule="evenodd" clip-rule="evenodd" fill="#BCA45F" d="M46.963,42.092c-0.534,0.697-0.292,1.568-0.292,1.568
					S47.104,43.052,46.963,42.092z"/>
				<circle fill-rule="evenodd" clip-rule="evenodd" fill="#BCA45F" cx="50.196" cy="44.073" r="0.269"/>
				<path fill-rule="evenodd" clip-rule="evenodd" fill="#BCA45F" d="M63.14,32.367c1.341,0.165,2.088,0.925,3.22,1.281
					c0.77,0.309,1.812,1.8,1.812,1.8s-0.355-0.013-1.039-0.216c-1.151-0.353-1.161-1.241-1.75-1.774
					c-0.2-0.128-0.387-0.258-0.57-0.254c-0.066,0.065,0.054,0.148,0.114,0.254c0.237,0.406,0.623,0.762,1.026,1.153
					c0.546,0.542,0.749,1.263,0.773,2.091c-0.034,0.037-0.101,0.015-0.126,0.025c-0.426-0.391-0.917-0.764-1.128-1.229
					c-0.297-0.877-0.302-1.922-1.142-2.435c-0.405-0.327-0.87-0.614-1.344-0.469c0.564,0.462,1.451,0.81,1.75,1.622
					c0.316,0.891,0.08,1.945-0.534,2.676c-0.335,0.361-0.653,0.634-1.191,0.747c-0.485,0.103-0.913-0.024-1.267-0.14
					c0.489-0.591,1.295-0.646,2.119-0.57c0.28-0.266,0.594-0.559,0.682-0.887l-0.037-0.025c-0.97,0.692-2.27,1.15-3.447,0.697
					c-0.367-0.151-0.675-0.414-0.951-0.635c-0.018-0.074-0.062-0.117-0.013-0.139c0.378-0.055,0.77-0.353,1.179-0.089
					c0.686,0.427,1.63,0.705,2.484,0.443l0.23-0.127c-0.443,0.076-0.701,0.058-1.042,0.038c-1.109-0.062-1.43-0.484-1.698-1.178
					c0.32-0.01,0.725-0.017,1.077,0.101c0.684,0.127,1.161,1.27,2.003,0.697c0.418-0.343,0.399-0.909,0.329-1.356
					c-0.163-0.569-0.784-1.049-0.784-1.049c0.143,0.226,0.187,0.393,0.18,0.658c-0.004,0.172-0.039,0.203-0.092,0.429
					c-0.947-0.504-0.805-1.247-1.354-1.797c-0.325-0.328-1.023-0.298-1.474,0.061c-0.3,0.237-0.481,0.479-0.469,0.862
					c0.013,0.338,0.13,0.57,0.418,0.76c0.153,0.125,0.438,0.168,0.671,0.051c0.111-0.055,0.169-0.105,0.242-0.206
					c-0.135,0.054-0.229,0.061-0.369,0.028c-0.217-0.052-0.36-0.166-0.43-0.38c-0.056-0.171-0.045-0.305,0.051-0.456
					c0.137-0.217,0.371-0.272,0.621-0.216c0.237,0.055,0.369,0.202,0.456,0.432c0.136,0.35-0.034,0.68-0.339,0.9
					c-0.361,0.264-0.821,0.159-1.143-0.103c-0.252-0.201-0.396-0.553-0.365-0.949c0.045-0.524,0.389-0.811,0.862-1.039
					c0.345-0.167,0.589-0.129,0.973-0.141C62.637,32.307,62.82,32.329,63.14,32.367z"/>
				<path fill-rule="evenodd" clip-rule="evenodd" fill="#BCA45F" d="M63.8,33.571c0.07,0.212,0.114,0.401,0,0.57
					c-0.276-0.379-0.656-0.721-0.635-1.153C63.421,33.067,63.692,33.253,63.8,33.571z"/>
				<path fill-rule="evenodd" clip-rule="evenodd" fill="#BCA45F" d="M65.953,34.94c0.328,0.263,0.485,0.939,0.497,1.409
					c-0.47-0.454-0.669-1.187-1.005-1.675c-0.094-0.218-0.177-0.424-0.188-0.596C65.602,34.372,65.617,34.671,65.953,34.94z"/>
				<path fill-rule="evenodd" clip-rule="evenodd" fill="#BCA45F" d="M62.599,35.523c0.319,0.353,0.711,0.368,0.975,0.533
					c0,0-1.545-0.102-1.939-0.824C61.634,35.232,62.255,35.145,62.599,35.523z"/>
				<path fill-rule="evenodd" clip-rule="evenodd" fill="#BCA45F" d="M62.835,36.602c-0.007,0.064-0.908,0.482-2.205-0.443
					c-0.031-0.074,0.022-0.112,0.076-0.089C61.474,36.043,62.055,36.527,62.835,36.602z"/>
				<path fill-rule="evenodd" clip-rule="evenodd" fill="#BCA45F" d="M63.71,37.108c-0.698,0.532-1.566,0.292-1.566,0.292
					S62.751,36.968,63.71,37.108z"/>
				<circle fill-rule="evenodd" clip-rule="evenodd" fill="#BCA45F" cx="61.729" cy="33.874" r="0.271"/>
				<path fill-rule="evenodd" clip-rule="evenodd" fill="#BCA45F" d="M56.814,37.587c-1.342-0.164-2.088-0.923-3.219-1.279
					c-0.771-0.309-1.814-1.801-1.814-1.801s0.355,0.014,1.041,0.215c1.149,0.354,1.161,1.242,1.75,1.775
					c0.199,0.129,0.385,0.258,0.568,0.254c0.066-0.065-0.053-0.147-0.114-0.254c-0.237-0.406-0.622-0.762-1.024-1.154
					c-0.547-0.541-0.75-1.262-0.775-2.09c0.034-0.037,0.101-0.015,0.127-0.026c0.427,0.392,0.918,0.765,1.129,1.229
					c0.295,0.878,0.302,1.923,1.141,2.434c0.404,0.328,0.869,0.615,1.344,0.47c-0.565-0.462-1.452-0.81-1.75-1.622
					c-0.316-0.891-0.081-1.945,0.533-2.675c0.335-0.362,0.654-0.635,1.191-0.748c0.486-0.103,0.913,0.024,1.267,0.14
					c-0.489,0.591-1.295,0.646-2.118,0.57c-0.281,0.266-0.595,0.559-0.682,0.887l0.036,0.025c0.97-0.691,2.27-1.15,3.449-0.696
					c0.365,0.149,0.673,0.412,0.949,0.633c0.018,0.074,0.062,0.118,0.014,0.14c-0.379,0.055-0.771,0.352-1.18,0.089
					c-0.686-0.427-1.63-0.705-2.483-0.443l-0.23,0.127c0.442-0.075,0.701-0.057,1.043-0.038c1.108,0.063,1.428,0.484,1.696,1.178
					c-0.319,0.01-0.726,0.017-1.077-0.1c-0.682-0.127-1.16-1.27-2.002-0.699c-0.418,0.344-0.4,0.91-0.33,1.357
					c0.163,0.57,0.784,1.05,0.784,1.05c-0.141-0.226-0.187-0.394-0.18-0.659c0.005-0.171,0.04-0.202,0.093-0.43
					c0.947,0.505,0.805,1.248,1.353,1.798c0.325,0.328,1.023,0.297,1.475-0.061c0.299-0.237,0.482-0.479,0.468-0.861
					c-0.011-0.339-0.129-0.571-0.418-0.761c-0.152-0.124-0.435-0.168-0.671-0.051c-0.11,0.057-0.169,0.105-0.24,0.206
					c0.134-0.054,0.228-0.062,0.367-0.028c0.219,0.052,0.361,0.167,0.432,0.379c0.054,0.172,0.043,0.306-0.053,0.457
					c-0.137,0.218-0.37,0.273-0.621,0.216c-0.237-0.055-0.367-0.202-0.456-0.431c-0.135-0.351,0.034-0.681,0.339-0.901
					c0.361-0.264,0.821-0.158,1.145,0.103c0.25,0.201,0.395,0.554,0.363,0.948c-0.043,0.524-0.389,0.812-0.862,1.04
					c-0.344,0.168-0.589,0.129-0.972,0.141C57.316,37.648,57.135,37.626,56.814,37.587z"/>
				<path fill-rule="evenodd" clip-rule="evenodd" fill="#BCA45F" d="M56.155,36.384c-0.071-0.212-0.114-0.4,0.001-0.57
					c0.273,0.379,0.654,0.72,0.633,1.152C56.534,36.889,56.262,36.702,56.155,36.384z"/>
				<path fill-rule="evenodd" clip-rule="evenodd" fill="#BCA45F" d="M52.53,35.179c-0.128-0.144-0.207-0.234-0.241-0.431
					c0.366,0.054,0.627,0.358,0.9,0.521c0.403,0.354,1.113,1.163,1.113,1.163C53.491,36.116,53.112,35.836,52.53,35.179z"/>
				<path fill-rule="evenodd" clip-rule="evenodd" fill="#BCA45F" d="M54.002,35.015c-0.33-0.263-0.486-0.939-0.499-1.408
					c0.472,0.453,0.669,1.187,1.005,1.674c0.096,0.219,0.178,0.424,0.189,0.596C54.352,35.583,54.336,35.284,54.002,35.015z"/>
				<path fill-rule="evenodd" clip-rule="evenodd" fill="#BCA45F" d="M57.354,34.432c-0.319-0.353-0.71-0.367-0.976-0.533
					c0,0,1.546,0.102,1.94,0.823C58.319,34.722,57.698,34.81,57.354,34.432z"/>
				<path fill-rule="evenodd" clip-rule="evenodd" fill="#BCA45F" d="M57.119,33.354c0.006-0.066,0.907-0.483,2.204,0.443
					c0.031,0.073-0.022,0.111-0.074,0.088C58.48,33.913,57.898,33.429,57.119,33.354z"/>
				<path fill-rule="evenodd" clip-rule="evenodd" fill="#BCA45F" d="M56.244,32.847c0.697-0.532,1.567-0.291,1.567-0.291
					S57.203,32.987,56.244,32.847z"/>
				<circle fill-rule="evenodd" clip-rule="evenodd" fill="#BCA45F" cx="58.226" cy="36.081" r="0.27"/>
				<path fill-rule="evenodd" clip-rule="evenodd" fill="#BCA45F" d="M46.71,33.344c-0.099-0.209-0.063-0.408,0.085-0.585
					c0.181-0.217,0.478-0.279,0.715-0.125c0.129,0.085,0.203,0.236,0.228,0.329l-0.013,0.051c-0.107-0.03-0.308-0.167-0.483-0.089
					c-0.117,0.053-0.183,0.12-0.228,0.241c-0.068,0.183,0.064,0.368,0.141,0.481C46.98,33.671,46.8,33.533,46.71,33.344z"/>
				<circle fill-rule="evenodd" clip-rule="evenodd" fill="#BCA45F" cx="47.213" cy="33.12" r="0.735"/>
				<circle fill-rule="evenodd" clip-rule="evenodd" fill="#BCA45F" cx="48.015" cy="36.047" r="0.27"/>
				<circle fill-rule="evenodd" clip-rule="evenodd" fill="#BCA45F" cx="50.241" cy="33.815" r="0.269"/>
				<path fill-rule="evenodd" clip-rule="evenodd" fill="#BCA45F" d="M50.033,35.318c0.489-0.11,1.066-0.032,1.406,0.253
					c0.052,0.096-0.03,0.107-0.088,0.102C50.901,35.657,50.469,35.499,50.033,35.318z"/>
				<path fill-rule="evenodd" clip-rule="evenodd" fill="#BCA45F" d="M50.452,36.409c-0.074-0.088-0.163-0.227-0.241-0.394
					l0.037-0.013c0.436,0.321,0.924,0.632,1.053,1.104c0.01,0.178-0.142,0.051-0.24,0.025L50.452,36.409z"/>
				<path fill-rule="evenodd" clip-rule="evenodd" fill="#BCA45F" d="M49.5,36.688c0.027-0.263-0.041-0.468,0.014-0.762
					c0.131,0.475,0.393,0.914,0.266,1.408C49.636,37.195,49.617,36.927,49.5,36.688z"/>
			</g>
		</g>
		<g>
			<polygon fill-rule="evenodd" clip-rule="evenodd" fill="#BCA45F" points="107.298,54.056 107.298,38.288 91.53,38.288 
				91.53,38.872 106.713,38.872 106.713,54.056 			"/>
			<polygon fill-rule="evenodd" clip-rule="evenodd" fill="#BCA45F" points="114.889,30.696 91.53,30.696 91.53,31.28 
				114.305,31.28 114.305,54.056 114.889,54.056 			"/>
			<g>
				<path fill-rule="evenodd" clip-rule="evenodd" fill="#BCA45F" d="M106.537,34.444c0.605-0.831,0.995-1.614,2.046-1.911
					c0.86-0.243,1.628-0.36,2.28,0.251c0.431,0.405,0.602,0.801,0.602,1.393c0.458-0.018,0.755,0.072,1.122,0.345
					c0.366,0.271,0.53,0.526,0.659,0.963c0.201,0.674-0.094,1.347-0.507,2.066c-0.427,0.742-1.039,1.094-1.593,1.513l-0.056-0.131
					c0.243-0.153,2.105-1.697,1.927-3.258c-0.033-0.296-0.311-0.582-0.672-0.697c-0.466-0.149-0.965-0.01-1.18,0.432
					c-0.111,0.231-0.152,0.422-0.051,0.658c0.069,0.157,0.144,0.243,0.292,0.33c-0.153-0.236-0.134-0.51,0.051-0.723
					c0.157-0.18,0.351-0.246,0.583-0.19c0.183,0.044,0.291,0.128,0.381,0.292c0.098,0.178,0.095,0.328,0.025,0.52
					c-0.119,0.328-0.438,0.463-0.786,0.431c-0.34-0.032-0.54-0.235-0.684-0.544c-0.141-0.303-0.153-0.596,0.009-0.855
					c0.174-0.291,0.538-0.497,0.965-0.527c0.305-0.021,0.496,0.105,0.762,0.178c-0.255-0.297-0.551-0.506-0.988-0.52
					c-0.649-0.021-1.064,0.542-1.33,1.002c-0.076,0.334,0.063,0.629,0.087,0.924c-0.021,0.595-0.262,1.086-0.657,1.434
					c-0.195-0.196-0.121-0.576-0.115-0.888c0.062-0.388,0.248-0.755,0.418-1.166c-0.033-0.02-0.091-0.042-0.1-0.038
					c-0.507,0.439-0.566,1.076-0.99,1.471c-0.317,0.223-0.673,0.336-1.001,0.406l-0.039-0.076c0.226-0.364,0.171-0.922,0.673-1.192
					c0.436-0.185,0.952-0.347,1.318-0.786c-0.089-0.048-0.218-0.004-0.268,0.013c-0.59,0.304-1.242,0.493-1.912,0.329
					c-0.084-0.022-0.022-0.096,0.024-0.151c0.352-0.305,0.758-0.555,1.28-0.596c0.338,0.028,0.701,0.104,1.064,0.178
					c0.397-0.155,0.608-0.624,0.926-0.951c0.344-0.632-0.329-1.331-0.329-1.331s0.194,0.8,0.026,1.128
					c-0.116,0.273-0.262,0.451-0.546,0.558c-0.376,0.142-0.729,0.055-1.003-0.24c-0.193-0.212-0.295-0.415-0.239-0.697
					c0.044-0.224,0.134-0.366,0.329-0.482c0.209-0.122,0.412-0.162,0.621-0.037c0.163,0.097,0.238,0.219,0.266,0.406
					c0.029,0.193-0.012,0.343-0.152,0.481c-0.156,0.152-0.379,0.206-0.544,0.126c-0.089,0.014-0.169-0.056-0.19-0.038
					c0.101,0.302,0.412,0.394,0.734,0.355c0.168-0.04,0.375-0.13,0.52-0.343c0.109-0.202,0.205-0.506,0.116-0.798
					c-0.144-0.331-0.504-0.724-0.876-0.786c-1.452-0.125-2.504,0.812-3.272,1.9C106.475,34.601,106.508,34.505,106.537,34.444z"/>
				<path fill-rule="evenodd" clip-rule="evenodd" fill="#BCA45F" d="M96.598,32.366c-1.342,0.164-2.088,0.924-3.219,1.279
					c-0.771,0.309-1.813,1.801-1.813,1.801s0.355-0.013,1.04-0.216c1.152-0.353,1.161-1.241,1.748-1.774
					c0.199-0.129,0.389-0.258,0.572-0.254c0.064,0.065-0.055,0.148-0.115,0.254c-0.238,0.406-0.623,0.762-1.027,1.153
					c-0.546,0.542-0.748,1.264-0.772,2.092c0.035,0.036,0.1,0.015,0.127,0.024c0.426-0.39,0.915-0.764,1.128-1.229
					c0.295-0.878,0.302-1.922,1.141-2.434c0.406-0.327,0.871-0.615,1.344-0.469c-0.565,0.461-1.452,0.809-1.749,1.622
					c-0.316,0.89-0.083,1.944,0.531,2.675c0.336,0.362,0.656,0.635,1.191,0.748c0.487,0.103,0.914-0.025,1.269-0.14
					c-0.491-0.592-1.296-0.647-2.119-0.571c-0.281-0.265-0.595-0.559-0.682-0.887l0.037-0.025c0.969,0.692,2.271,1.151,3.448,0.697
					c0.367-0.15,0.675-0.414,0.952-0.634c0.017-0.073,0.061-0.118,0.012-0.14c-0.379-0.055-0.772-0.353-1.18-0.089
					c-0.687,0.427-1.631,0.706-2.483,0.444l-0.23-0.127c0.441,0.074,0.699,0.057,1.042,0.037c1.109-0.062,1.428-0.485,1.697-1.179
					c-0.32-0.009-0.725-0.016-1.076,0.103c-0.684,0.126-1.162,1.269-2.004,0.696c-0.418-0.342-0.398-0.909-0.33-1.356
					c0.163-0.569,0.784-1.049,0.784-1.049c-0.141,0.226-0.188,0.393-0.18,0.658c0.007,0.172,0.04,0.203,0.094,0.429
					c0.946-0.504,0.804-1.247,1.351-1.797c0.326-0.328,1.025-0.298,1.475,0.061c0.301,0.237,0.483,0.479,0.471,0.862
					c-0.014,0.338-0.132,0.57-0.42,0.761c-0.152,0.124-0.436,0.168-0.67,0.05c-0.111-0.056-0.17-0.105-0.241-0.206
					c0.133,0.054,0.227,0.062,0.367,0.028c0.218-0.051,0.362-0.166,0.431-0.379c0.055-0.172,0.045-0.306-0.051-0.457
					c-0.138-0.217-0.371-0.272-0.621-0.215c-0.239,0.055-0.368,0.202-0.455,0.43c-0.136,0.352,0.033,0.681,0.337,0.901
					c0.362,0.265,0.821,0.159,1.146-0.102c0.248-0.201,0.394-0.555,0.362-0.949c-0.043-0.524-0.387-0.812-0.862-1.04
					c-0.344-0.167-0.588-0.129-0.97-0.141C97.1,32.306,96.918,32.327,96.598,32.366z"/>
				<path fill-rule="evenodd" clip-rule="evenodd" fill="#BCA45F" d="M95.938,33.57c-0.071,0.211-0.114,0.4,0,0.57
					c0.274-0.379,0.653-0.721,0.633-1.153C96.317,33.064,96.045,33.252,95.938,33.57z"/>
				<path fill-rule="evenodd" clip-rule="evenodd" fill="#BCA45F" d="M92.313,34.774c-0.127,0.145-0.205,0.234-0.24,0.431
					c0.368-0.054,0.626-0.357,0.899-0.52c0.403-0.354,1.113-1.164,1.113-1.164C93.274,33.837,92.895,34.118,92.313,34.774z"/>
				<path fill-rule="evenodd" clip-rule="evenodd" fill="#BCA45F" d="M93.783,34.938c-0.329,0.263-0.483,0.939-0.497,1.409
					c0.472-0.454,0.669-1.187,1.004-1.675c0.095-0.219,0.18-0.424,0.19-0.596C94.135,34.37,94.119,34.67,93.783,34.938z"/>
				<path fill-rule="evenodd" clip-rule="evenodd" fill="#BCA45F" d="M97.138,35.522c-0.319,0.352-0.71,0.367-0.976,0.532
					c0,0,1.547-0.101,1.94-0.823C98.103,35.231,97.481,35.144,97.138,35.522z"/>
				<path fill-rule="evenodd" clip-rule="evenodd" fill="#BCA45F" d="M96.902,36.6c0.008,0.065,0.908,0.482,2.205-0.444
					c0.03-0.073-0.021-0.111-0.076-0.088C98.266,36.041,97.682,36.524,96.902,36.6z"/>
				<path fill-rule="evenodd" clip-rule="evenodd" fill="#BCA45F" d="M96.027,37.106c0.696,0.533,1.567,0.291,1.567,0.291
					S96.986,36.966,96.027,37.106z"/>
				<circle fill-rule="evenodd" clip-rule="evenodd" fill="#BCA45F" cx="98.01" cy="33.873" r="0.269"/>
				<path fill-rule="evenodd" clip-rule="evenodd" fill="#BCA45F" d="M102.923,37.585c1.341-0.164,2.089-0.924,3.22-1.279
					c0.771-0.309,1.812-1.801,1.812-1.801s-0.354,0.014-1.04,0.217c-1.151,0.352-1.16,1.24-1.747,1.773
					c-0.202,0.129-0.389,0.259-0.572,0.254c-0.066-0.064,0.054-0.147,0.113-0.254c0.238-0.406,0.624-0.761,1.027-1.153
					c0.547-0.541,0.75-1.264,0.773-2.091c-0.033-0.037-0.1-0.015-0.126-0.025c-0.426,0.391-0.917,0.764-1.129,1.229
					c-0.294,0.878-0.301,1.922-1.14,2.435c-0.406,0.327-0.872,0.615-1.345,0.469c0.565-0.461,1.452-0.81,1.75-1.622
					c0.315-0.891,0.082-1.945-0.532-2.675c-0.335-0.362-0.655-0.634-1.193-0.747c-0.485-0.104-0.911,0.023-1.267,0.139
					c0.491,0.592,1.297,0.646,2.12,0.57c0.281,0.266,0.592,0.559,0.682,0.887l-0.037,0.025c-0.969-0.692-2.271-1.15-3.449-0.697
					c-0.366,0.15-0.674,0.414-0.951,0.635c-0.017,0.073-0.061,0.117-0.012,0.139c0.378,0.055,0.771,0.353,1.179,0.089
					c0.688-0.427,1.632-0.705,2.484-0.444l0.23,0.128c-0.441-0.075-0.7-0.058-1.042-0.038c-1.109,0.062-1.428,0.485-1.699,1.179
					c0.322,0.01,0.726,0.016,1.078-0.102c0.684-0.126,1.16-1.27,2.004-0.696c0.418,0.342,0.397,0.909,0.328,1.355
					c-0.161,0.57-0.782,1.05-0.782,1.05c0.141-0.227,0.187-0.394,0.179-0.659c-0.006-0.171-0.039-0.202-0.093-0.429
					c-0.948,0.505-0.805,1.247-1.352,1.798c-0.325,0.327-1.024,0.297-1.476-0.062c-0.299-0.237-0.481-0.479-0.469-0.862
					c0.012-0.337,0.132-0.57,0.418-0.76c0.152-0.124,0.437-0.168,0.671-0.051c0.11,0.056,0.171,0.105,0.241,0.207
					c-0.133-0.055-0.229-0.062-0.366-0.029c-0.219,0.052-0.363,0.167-0.433,0.38c-0.053,0.171-0.044,0.306,0.051,0.456
					c0.137,0.218,0.373,0.273,0.623,0.216c0.238-0.055,0.368-0.202,0.455-0.431c0.135-0.351-0.033-0.68-0.338-0.9
					c-0.362-0.265-0.822-0.159-1.145,0.102c-0.249,0.201-0.395,0.554-0.363,0.948c0.043,0.525,0.388,0.812,0.86,1.041
					c0.347,0.167,0.59,0.128,0.973,0.141C102.422,37.647,102.603,37.625,102.923,37.585z"/>
				<path fill-rule="evenodd" clip-rule="evenodd" fill="#BCA45F" d="M103.583,36.381c0.07-0.21,0.113-0.399-0.001-0.569
					c-0.273,0.378-0.655,0.721-0.635,1.153C103.203,36.887,103.475,36.7,103.583,36.381z"/>
				<path fill-rule="evenodd" clip-rule="evenodd" fill="#BCA45F" d="M107.207,35.177c0.127-0.145,0.207-0.234,0.24-0.43
					c-0.367,0.054-0.626,0.357-0.898,0.519c-0.404,0.354-1.113,1.165-1.113,1.165C106.247,36.114,106.626,35.834,107.207,35.177z"/>
				<path fill-rule="evenodd" clip-rule="evenodd" fill="#BCA45F" d="M105.738,35.013c0.328-0.262,0.484-0.939,0.496-1.408
					c-0.472,0.453-0.67,1.186-1.004,1.674c-0.097,0.219-0.179,0.424-0.19,0.596C105.387,35.582,105.399,35.282,105.738,35.013z"/>
				<path fill-rule="evenodd" clip-rule="evenodd" fill="#BCA45F" d="M102.383,34.43c0.318-0.353,0.711-0.367,0.974-0.532
					c0,0-1.544,0.101-1.938,0.822C101.418,34.72,102.04,34.809,102.383,34.43z"/>
				<path fill-rule="evenodd" clip-rule="evenodd" fill="#BCA45F" d="M102.619,33.353c-0.008-0.065-0.908-0.483-2.207,0.443
					c-0.029,0.074,0.023,0.111,0.077,0.089C101.256,33.911,101.84,33.427,102.619,33.353z"/>
				<path fill-rule="evenodd" clip-rule="evenodd" fill="#BCA45F" d="M103.493,32.845c-0.698-0.531-1.567-0.291-1.567-0.291
					S102.533,32.985,103.493,32.845z"/>
				<circle fill-rule="evenodd" clip-rule="evenodd" fill="#BCA45F" cx="101.512" cy="36.079" r="0.27"/>
				<path fill-rule="evenodd" clip-rule="evenodd" fill="#BCA45F" d="M113.217,49.022c-0.164,1.342-0.923,2.088-1.278,3.22
					c-0.309,0.771-1.801,1.813-1.801,1.813s0.013-0.355,0.216-1.041c0.354-1.15,1.241-1.16,1.773-1.748
					c0.129-0.2,0.26-0.387,0.254-0.571c-0.064-0.066-0.148,0.054-0.254,0.115c-0.406,0.236-0.762,0.622-1.152,1.026
					c-0.543,0.547-1.264,0.749-2.091,0.773c-0.038-0.034-0.015-0.101-0.026-0.127c0.391-0.427,0.765-0.917,1.23-1.129
					c0.877-0.295,1.921-0.301,2.433-1.141c0.328-0.404,0.616-0.869,0.47-1.344c-0.462,0.565-0.811,1.452-1.622,1.75
					c-0.891,0.316-1.945,0.082-2.675-0.532c-0.364-0.336-0.637-0.655-0.748-1.192c-0.104-0.486,0.024-0.912,0.139-1.268
					c0.592,0.49,0.647,1.297,0.572,2.119c0.264,0.281,0.557,0.594,0.885,0.683l0.026-0.038c-0.692-0.969-1.152-2.27-0.696-3.448
					c0.15-0.366,0.412-0.673,0.634-0.95c0.073-0.018,0.117-0.062,0.138-0.013c0.057,0.378,0.354,0.771,0.09,1.179
					c-0.427,0.688-0.705,1.631-0.445,2.484l0.128,0.23c-0.075-0.441-0.058-0.701-0.038-1.042c0.062-1.11,0.486-1.429,1.18-1.698
					c0.008,0.32,0.015,0.726-0.103,1.078c-0.125,0.683-1.27,1.16-0.696,2.002c0.342,0.419,0.908,0.399,1.356,0.33
					c0.569-0.162,1.048-0.783,1.048-0.783c-0.224,0.141-0.391,0.186-0.658,0.179c-0.171-0.005-0.202-0.041-0.429-0.093
					c0.505-0.947,1.246-0.805,1.798-1.352c0.327-0.326,0.297-1.024-0.061-1.476c-0.237-0.3-0.479-0.482-0.861-0.469
					c-0.34,0.012-0.572,0.131-0.762,0.419c-0.125,0.151-0.168,0.436-0.051,0.671c0.057,0.11,0.107,0.169,0.206,0.24
					c-0.054-0.133-0.06-0.228-0.027-0.367c0.051-0.218,0.167-0.361,0.379-0.431c0.172-0.055,0.306-0.045,0.457,0.051
					c0.216,0.137,0.273,0.371,0.216,0.621c-0.056,0.238-0.203,0.368-0.431,0.457c-0.352,0.134-0.681-0.035-0.901-0.338
					c-0.266-0.363-0.158-0.822,0.102-1.146c0.201-0.249,0.554-0.395,0.949-0.362c0.525,0.042,0.811,0.387,1.039,0.861
					c0.168,0.344,0.129,0.588,0.141,0.972C113.279,48.521,113.256,48.703,113.217,49.022z"/>
				<path fill-rule="evenodd" clip-rule="evenodd" fill="#BCA45F" d="M112.014,49.683c-0.211,0.07-0.4,0.114-0.57-0.001
					c0.379-0.274,0.721-0.654,1.152-0.634C112.518,49.303,112.332,49.575,112.014,49.683z"/>
				<path fill-rule="evenodd" clip-rule="evenodd" fill="#BCA45F" d="M110.646,51.837c-0.263,0.329-0.94,0.484-1.409,0.497
					c0.455-0.471,1.187-0.669,1.675-1.004c0.219-0.097,0.423-0.179,0.595-0.19C111.213,51.485,110.914,51.499,110.646,51.837z"/>
				<path fill-rule="evenodd" clip-rule="evenodd" fill="#BCA45F" d="M110.061,48.481c-0.352,0.32-0.365,0.711-0.531,0.976
					c0,0,0.101-1.546,0.823-1.939C110.353,47.518,110.441,48.139,110.061,48.481z"/>
				<path fill-rule="evenodd" clip-rule="evenodd" fill="#BCA45F" d="M108.984,48.718c-0.065-0.007-0.483-0.907,0.443-2.205
					c0.074-0.03,0.111,0.023,0.089,0.076C109.543,47.355,109.059,47.938,108.984,48.718z"/>
				<path fill-rule="evenodd" clip-rule="evenodd" fill="#BCA45F" d="M108.478,49.593c-0.532-0.697-0.292-1.566-0.292-1.566
					S108.618,48.634,108.478,49.593z"/>
				<circle fill-rule="evenodd" clip-rule="evenodd" fill="#BCA45F" cx="111.712" cy="47.611" r="0.27"/>
				<path fill-rule="evenodd" clip-rule="evenodd" fill="#BCA45F" d="M107.997,42.696c0.167-1.34,0.926-2.087,1.281-3.219
					c0.31-0.771,1.801-1.812,1.801-1.812s-0.015,0.355-0.216,1.039c-0.354,1.151-1.241,1.162-1.775,1.75
					c-0.127,0.199-0.258,0.387-0.254,0.57c0.065,0.066,0.147-0.055,0.254-0.115c0.408-0.236,0.762-0.623,1.154-1.025
					c0.541-0.547,1.264-0.75,2.091-0.773c0.036,0.033,0.015,0.1,0.026,0.127c-0.391,0.426-0.766,0.916-1.229,1.127
					c-0.878,0.296-1.922,0.303-2.435,1.142c-0.327,0.405-0.615,0.87-0.469,1.344c0.461-0.565,0.81-1.452,1.622-1.749
					c0.891-0.316,1.944-0.082,2.675,0.531c0.361,0.336,0.635,0.656,0.748,1.192c0.102,0.486-0.025,0.913-0.141,1.268
					c-0.591-0.49-0.646-1.296-0.57-2.119c-0.266-0.28-0.559-0.594-0.887-0.683l-0.025,0.039c0.692,0.968,1.15,2.269,0.697,3.446
					c-0.149,0.367-0.412,0.675-0.634,0.951c-0.074,0.018-0.118,0.062-0.14,0.013c-0.055-0.378-0.353-0.771-0.088-1.179
					c0.426-0.688,0.705-1.631,0.442-2.485l-0.126-0.229c0.075,0.442,0.056,0.7,0.037,1.042c-0.062,1.109-0.484,1.429-1.178,1.698
					c-0.01-0.319-0.016-0.726,0.102-1.077c0.126-0.684,1.27-1.161,0.696-2.003c-0.343-0.419-0.91-0.399-1.355-0.33
					c-0.57,0.163-1.051,0.784-1.051,0.784c0.227-0.142,0.394-0.187,0.66-0.18c0.171,0.005,0.203,0.04,0.429,0.093
					c-0.504,0.948-1.246,0.806-1.797,1.353c-0.328,0.325-0.297,1.023,0.06,1.475c0.238,0.299,0.48,0.482,0.863,0.469
					c0.337-0.012,0.57-0.131,0.761-0.418c0.123-0.153,0.168-0.437,0.049-0.672c-0.055-0.109-0.105-0.168-0.205-0.24
					c0.053,0.133,0.061,0.228,0.028,0.367c-0.052,0.217-0.167,0.361-0.38,0.431c-0.17,0.055-0.305,0.045-0.456-0.051
					c-0.218-0.137-0.272-0.372-0.215-0.621c0.054-0.239,0.2-0.368,0.43-0.456c0.351-0.135,0.68,0.034,0.901,0.338
					c0.264,0.362,0.158,0.821-0.104,1.145c-0.2,0.25-0.553,0.395-0.947,0.363c-0.525-0.043-0.812-0.387-1.041-0.861
					c-0.168-0.345-0.129-0.59-0.139-0.973C107.938,43.2,107.959,43.017,107.997,42.696z"/>
				<path fill-rule="evenodd" clip-rule="evenodd" fill="#BCA45F" d="M109.203,42.037c0.211-0.07,0.399-0.114,0.57,0.001
					c-0.379,0.275-0.722,0.654-1.155,0.635C108.697,42.417,108.884,42.145,109.203,42.037z"/>
				<path fill-rule="evenodd" clip-rule="evenodd" fill="#BCA45F" d="M110.407,38.413c0.144-0.127,0.233-0.207,0.43-0.241
					c-0.054,0.367-0.358,0.626-0.519,0.899c-0.354,0.404-1.165,1.113-1.165,1.113C109.469,39.374,109.75,38.994,110.407,38.413z"/>
				<path fill-rule="evenodd" clip-rule="evenodd" fill="#BCA45F" d="M110.571,39.883c0.262-0.329,0.938-0.484,1.409-0.497
					c-0.453,0.471-1.188,0.67-1.675,1.004c-0.218,0.097-0.425,0.178-0.597,0.19C110.002,40.235,110.302,40.22,110.571,39.883z"/>
				<path fill-rule="evenodd" clip-rule="evenodd" fill="#BCA45F" d="M111.154,43.237c0.352-0.318,0.366-0.71,0.531-0.975
					c0,0-0.1,1.546-0.821,1.939C110.864,44.202,110.774,43.581,111.154,43.237z"/>
				<path fill-rule="evenodd" clip-rule="evenodd" fill="#BCA45F" d="M112.231,43.001c0.065,0.008,0.483,0.908-0.442,2.206
					c-0.074,0.03-0.113-0.022-0.089-0.076C111.673,44.364,112.157,43.781,112.231,43.001z"/>
				<path fill-rule="evenodd" clip-rule="evenodd" fill="#BCA45F" d="M112.739,42.127c0.532,0.697,0.29,1.567,0.29,1.567
					S112.599,43.087,112.739,42.127z"/>
				<circle fill-rule="evenodd" clip-rule="evenodd" fill="#BCA45F" cx="109.505" cy="44.108" r="0.27"/>
				<path fill-rule="evenodd" clip-rule="evenodd" fill="#BCA45F" d="M112.242,32.592c0.208-0.099,0.408-0.062,0.584,0.085
					c0.218,0.182,0.28,0.477,0.125,0.715c-0.086,0.13-0.236,0.204-0.328,0.229l-0.051-0.014c0.03-0.105,0.167-0.308,0.089-0.482
					c-0.054-0.118-0.12-0.183-0.241-0.228c-0.184-0.067-0.369,0.065-0.481,0.14C111.915,32.864,112.053,32.683,112.242,32.592z"/>
				<circle fill-rule="evenodd" clip-rule="evenodd" fill="#BCA45F" cx="112.466" cy="33.095" r="0.735"/>
				<circle fill-rule="evenodd" clip-rule="evenodd" fill="#BCA45F" cx="109.539" cy="33.899" r="0.269"/>
				<circle fill-rule="evenodd" clip-rule="evenodd" fill="#BCA45F" cx="111.77" cy="36.123" r="0.27"/>
				<path fill-rule="evenodd" clip-rule="evenodd" fill="#BCA45F" d="M110.267,35.916c0.112,0.489,0.032,1.065-0.253,1.407
					c-0.094,0.051-0.107-0.031-0.102-0.09C109.93,36.785,110.088,36.352,110.267,35.916z"/>
				<path fill-rule="evenodd" clip-rule="evenodd" fill="#BCA45F" d="M109.177,36.334c0.087-0.074,0.227-0.163,0.394-0.241
					l0.013,0.039c-0.323,0.436-0.633,0.922-1.104,1.052c-0.177,0.011-0.051-0.142-0.023-0.241L109.177,36.334z"/>
				<path fill-rule="evenodd" clip-rule="evenodd" fill="#BCA45F" d="M108.898,35.383c0.262,0.028,0.467-0.042,0.76,0.014
					c-0.474,0.132-0.914,0.392-1.407,0.266C108.391,35.519,108.66,35.5,108.898,35.383z"/>
			</g>
		</g>
		<g>
			<polygon fill-rule="evenodd" clip-rule="evenodd" fill="#BCA45F" points="91.53,121.713 107.298,121.713 107.298,105.946 
				106.713,105.946 106.713,121.128 91.53,121.128 			"/>
			<polygon fill-rule="evenodd" clip-rule="evenodd" fill="#BCA45F" points="114.889,129.304 114.889,105.946 114.305,105.946 
				114.305,128.72 91.53,128.72 91.53,129.304 			"/>
			<g>
				<path fill-rule="evenodd" clip-rule="evenodd" fill="#BCA45F" d="M111.142,120.951c0.831,0.606,1.613,0.996,1.911,2.046
					c0.242,0.861,0.359,1.629-0.252,2.279c-0.405,0.433-0.8,0.604-1.393,0.604c0.019,0.456-0.072,0.753-0.345,1.121
					c-0.269,0.367-0.526,0.528-0.962,0.659c-0.675,0.2-1.347-0.094-2.066-0.507c-0.744-0.426-1.094-1.039-1.514-1.591l0.132-0.058
					c0.152,0.243,1.696,2.106,3.258,1.927c0.296-0.033,0.581-0.311,0.696-0.672c0.15-0.466,0.011-0.966-0.431-1.18
					c-0.231-0.11-0.423-0.152-0.659-0.049c-0.156,0.067-0.243,0.142-0.329,0.289c0.237-0.154,0.509-0.133,0.722,0.053
					c0.181,0.158,0.246,0.351,0.191,0.582c-0.045,0.183-0.129,0.292-0.292,0.382c-0.179,0.097-0.329,0.093-0.521,0.023
					c-0.328-0.118-0.463-0.437-0.43-0.785c0.031-0.34,0.235-0.54,0.544-0.685c0.302-0.141,0.595-0.151,0.854,0.01
					c0.293,0.175,0.497,0.538,0.528,0.967c0.021,0.303-0.106,0.496-0.179,0.76c0.299-0.256,0.507-0.551,0.52-0.988
					c0.021-0.649-0.541-1.063-1.001-1.332c-0.335-0.075-0.629,0.065-0.926,0.09c-0.594-0.021-1.083-0.263-1.433-0.658
					c0.197-0.195,0.578-0.121,0.889-0.115c0.388,0.062,0.755,0.249,1.166,0.418c0.02-0.033,0.042-0.09,0.038-0.102
					c-0.438-0.505-1.075-0.564-1.472-0.988c-0.221-0.317-0.336-0.673-0.404-1.001l0.075-0.038c0.363,0.225,0.921,0.171,1.192,0.672
					c0.184,0.437,0.346,0.952,0.785,1.319c0.049-0.089,0.006-0.219-0.013-0.269c-0.304-0.591-0.492-1.242-0.329-1.912
					c0.023-0.082,0.096-0.023,0.152,0.024c0.303,0.352,0.556,0.757,0.596,1.28c-0.028,0.338-0.105,0.703-0.178,1.064
					c0.156,0.397,0.623,0.609,0.951,0.926c0.632,0.344,1.331-0.329,1.331-0.329s-0.801,0.192-1.129,0.024
					c-0.272-0.113-0.45-0.26-0.558-0.544c-0.141-0.376-0.055-0.729,0.241-1.001c0.212-0.195,0.414-0.297,0.696-0.241
					c0.225,0.043,0.367,0.133,0.48,0.328c0.124,0.21,0.164,0.413,0.039,0.621c-0.096,0.163-0.219,0.239-0.404,0.267
					c-0.195,0.03-0.346-0.012-0.482-0.152c-0.153-0.156-0.207-0.379-0.126-0.544c-0.015-0.089,0.056-0.171,0.038-0.191
					c-0.303,0.101-0.394,0.414-0.355,0.735c0.041,0.17,0.13,0.375,0.342,0.52c0.202,0.108,0.506,0.203,0.8,0.115
					c0.329-0.143,0.723-0.503,0.785-0.874c0.124-1.453-0.812-2.504-1.901-3.273C110.985,120.89,111.082,120.923,111.142,120.951z"/>
				<path fill-rule="evenodd" clip-rule="evenodd" fill="#BCA45F" d="M113.22,111.013c-0.164-1.343-0.925-2.089-1.281-3.219
					c-0.308-0.772-1.801-1.812-1.801-1.812s0.013,0.353,0.219,1.039c0.352,1.151,1.239,1.16,1.773,1.749
					c0.128,0.2,0.258,0.387,0.253,0.57c-0.065,0.067-0.147-0.053-0.253-0.115c-0.406-0.235-0.762-0.622-1.152-1.025
					c-0.543-0.547-1.266-0.749-2.093-0.773c-0.036,0.035-0.014,0.102-0.025,0.127c0.392,0.426,0.764,0.917,1.229,1.129
					c0.878,0.293,1.922,0.301,2.436,1.14c0.326,0.405,0.614,0.87,0.467,1.345c-0.461-0.567-0.809-1.454-1.622-1.75
					c-0.89-0.316-1.944-0.083-2.675,0.531c-0.361,0.336-0.634,0.656-0.747,1.191c-0.103,0.487,0.024,0.914,0.141,1.27
					c0.59-0.492,0.646-1.298,0.57-2.121c0.266-0.279,0.559-0.592,0.887-0.681l0.024,0.038c-0.692,0.969-1.15,2.27-0.696,3.447
					c0.149,0.367,0.413,0.675,0.634,0.951c0.074,0.018,0.117,0.061,0.139,0.012c0.056-0.379,0.354-0.77,0.088-1.178
					c-0.427-0.688-0.704-1.631-0.442-2.485l0.128-0.229c-0.076,0.441-0.058,0.701-0.039,1.041c0.063,1.11,0.485,1.43,1.178,1.699
					c0.011-0.32,0.016-0.726-0.1-1.078c-0.128-0.683-1.27-1.162-0.697-2.003c0.342-0.418,0.908-0.398,1.355-0.329
					c0.57,0.161,1.05,0.783,1.05,0.783c-0.227-0.142-0.394-0.186-0.659-0.178c-0.172,0.004-0.203,0.039-0.428,0.092
					c0.505,0.947,1.246,0.805,1.795,1.351c0.33,0.327,0.299,1.024-0.06,1.476c-0.238,0.301-0.478,0.482-0.862,0.47
					c-0.338-0.013-0.57-0.132-0.759-0.419c-0.125-0.151-0.168-0.437-0.051-0.672c0.055-0.109,0.105-0.168,0.206-0.24
					c-0.055,0.133-0.062,0.227-0.029,0.367c0.051,0.218,0.167,0.362,0.381,0.43c0.169,0.055,0.305,0.046,0.455-0.049
					c0.218-0.136,0.273-0.371,0.215-0.621c-0.053-0.24-0.201-0.369-0.431-0.457c-0.349-0.135-0.68,0.035-0.898,0.337
					c-0.266,0.363-0.16,0.823,0.102,1.147c0.199,0.247,0.554,0.393,0.948,0.36c0.524-0.042,0.811-0.386,1.04-0.859
					c0.167-0.347,0.129-0.591,0.141-0.973C113.281,111.516,113.259,111.333,113.22,111.013z"/>
				<path fill-rule="evenodd" clip-rule="evenodd" fill="#BCA45F" d="M112.014,110.354c-0.209-0.07-0.398-0.114-0.568,0
					c0.379,0.275,0.721,0.654,1.153,0.635C112.521,110.732,112.334,110.461,112.014,110.354z"/>
				<path fill-rule="evenodd" clip-rule="evenodd" fill="#BCA45F" d="M110.811,106.729c-0.145-0.126-0.234-0.205-0.431-0.24
					c0.055,0.367,0.358,0.626,0.52,0.9c0.355,0.404,1.165,1.111,1.165,1.111C111.748,107.689,111.469,107.311,110.811,106.729z"/>
				<path fill-rule="evenodd" clip-rule="evenodd" fill="#BCA45F" d="M110.648,108.199c-0.265-0.33-0.94-0.484-1.412-0.496
					c0.455,0.469,1.189,0.669,1.676,1.002c0.218,0.097,0.425,0.179,0.597,0.191C111.216,108.551,110.915,108.535,110.648,108.199z"
					/>
				<path fill-rule="evenodd" clip-rule="evenodd" fill="#BCA45F" d="M110.063,111.555c-0.352-0.32-0.367-0.711-0.531-0.977
					c0,0,0.099,1.547,0.821,1.938C110.354,112.517,110.443,111.896,110.063,111.555z"/>
				<path fill-rule="evenodd" clip-rule="evenodd" fill="#BCA45F" d="M108.986,111.316c-0.066,0.009-0.482,0.91,0.443,2.207
					c0.072,0.029,0.111-0.023,0.088-0.076C109.544,112.681,109.06,112.098,108.986,111.316z"/>
				<path fill-rule="evenodd" clip-rule="evenodd" fill="#BCA45F" d="M108.479,110.442c-0.532,0.696-0.29,1.569-0.29,1.569
					S108.618,111.402,108.479,110.442z"/>
				<circle fill-rule="evenodd" clip-rule="evenodd" fill="#BCA45F" cx="111.712" cy="112.424" r="0.269"/>
				<path fill-rule="evenodd" clip-rule="evenodd" fill="#BCA45F" d="M108,117.338c0.164,1.343,0.923,2.089,1.281,3.22
					c0.307,0.771,1.801,1.814,1.801,1.814s-0.015-0.355-0.218-1.041c-0.353-1.152-1.241-1.161-1.774-1.75
					c-0.128-0.199-0.257-0.387-0.253-0.57c0.065-0.064,0.147,0.054,0.253,0.115c0.407,0.236,0.762,0.623,1.153,1.027
					c0.543,0.545,1.263,0.748,2.093,0.771c0.036-0.032,0.013-0.1,0.024-0.127c-0.392-0.426-0.765-0.917-1.23-1.128
					c-0.876-0.294-1.921-0.301-2.434-1.141c-0.325-0.405-0.614-0.87-0.469-1.344c0.462,0.566,0.81,1.453,1.622,1.749
					c0.891,0.316,1.945,0.083,2.675-0.531c0.362-0.336,0.636-0.655,0.747-1.191c0.104-0.487-0.023-0.913-0.138-1.269
					c-0.591,0.491-0.647,1.297-0.571,2.12c-0.265,0.279-0.559,0.592-0.887,0.682l-0.025-0.037c0.691-0.969,1.151-2.271,0.698-3.448
					c-0.152-0.367-0.414-0.674-0.634-0.951c-0.074-0.019-0.119-0.062-0.141-0.012c-0.054,0.379-0.354,0.771-0.089,1.178
					c0.427,0.688,0.707,1.63,0.444,2.484l-0.128,0.23c0.075-0.441,0.058-0.702,0.039-1.042c-0.062-1.11-0.485-1.428-1.18-1.698
					c-0.009,0.321-0.015,0.726,0.102,1.077c0.128,0.684,1.27,1.162,0.698,2.003c-0.343,0.418-0.91,0.399-1.358,0.331
					c-0.567-0.163-1.048-0.784-1.048-0.784c0.227,0.141,0.393,0.187,0.658,0.179c0.171-0.006,0.202-0.041,0.429-0.093
					c-0.504-0.948-1.246-0.805-1.796-1.352c-0.328-0.325-0.298-1.024,0.061-1.475c0.236-0.3,0.479-0.483,0.86-0.471
					c0.34,0.014,0.573,0.132,0.761,0.42c0.123,0.152,0.169,0.436,0.052,0.672c-0.056,0.108-0.106,0.169-0.207,0.24
					c0.054-0.134,0.062-0.228,0.03-0.368c-0.053-0.216-0.17-0.362-0.381-0.43c-0.172-0.055-0.306-0.046-0.458,0.05
					c-0.215,0.137-0.272,0.371-0.215,0.62c0.056,0.24,0.202,0.37,0.433,0.457c0.349,0.135,0.68-0.035,0.899-0.337
					c0.263-0.361,0.16-0.821-0.102-1.146c-0.2-0.249-0.554-0.395-0.949-0.362c-0.524,0.042-0.812,0.387-1.04,0.862
					c-0.167,0.344-0.129,0.588-0.141,0.97C107.939,116.837,107.961,117.019,108,117.338z"/>
				<path fill-rule="evenodd" clip-rule="evenodd" fill="#BCA45F" d="M109.204,117.998c0.211,0.07,0.401,0.113,0.57,0
					c-0.379-0.274-0.72-0.655-1.153-0.636C108.699,117.618,108.885,117.892,109.204,117.998z"/>
				<path fill-rule="evenodd" clip-rule="evenodd" fill="#BCA45F" d="M110.408,121.622c0.145,0.129,0.234,0.208,0.43,0.242
					c-0.052-0.369-0.356-0.628-0.518-0.9c-0.355-0.406-1.164-1.113-1.164-1.113C109.471,120.662,109.752,121.04,110.408,121.622z"/>
				<path fill-rule="evenodd" clip-rule="evenodd" fill="#BCA45F" d="M110.572,120.153c0.262,0.328,0.94,0.482,1.409,0.494
					c-0.454-0.469-1.187-0.669-1.673-1.002c-0.221-0.097-0.426-0.179-0.598-0.191C110.005,119.8,110.303,119.815,110.572,120.153z"
					/>
				<path fill-rule="evenodd" clip-rule="evenodd" fill="#BCA45F" d="M111.156,116.798c0.353,0.32,0.367,0.711,0.532,0.975
					c0,0-0.102-1.547-0.821-1.938C110.867,115.834,110.777,116.455,111.156,116.798z"/>
				<path fill-rule="evenodd" clip-rule="evenodd" fill="#BCA45F" d="M112.232,117.034c0.066-0.009,0.483-0.908-0.442-2.206
					c-0.074-0.03-0.112,0.023-0.09,0.078C111.674,115.672,112.158,116.255,112.232,117.034z"/>
				<path fill-rule="evenodd" clip-rule="evenodd" fill="#BCA45F" d="M112.74,117.908c0.531-0.696,0.292-1.567,0.292-1.567
					S112.6,116.95,112.74,117.908z"/>
				<circle fill-rule="evenodd" clip-rule="evenodd" fill="#BCA45F" cx="109.505" cy="115.928" r="0.269"/>
				<path fill-rule="evenodd" clip-rule="evenodd" fill="#BCA45F" d="M96.563,127.634c-1.343-0.166-2.089-0.925-3.22-1.281
					c-0.771-0.309-1.812-1.8-1.812-1.8s0.354,0.013,1.039,0.216c1.15,0.354,1.161,1.24,1.75,1.775
					c0.199,0.127,0.385,0.256,0.57,0.252c0.066-0.064-0.055-0.146-0.115-0.252c-0.236-0.408-0.623-0.762-1.027-1.154
					c-0.546-0.543-0.748-1.266-0.771-2.092c0.032-0.037,0.099-0.014,0.125-0.025c0.427,0.391,0.918,0.765,1.13,1.23
					c0.294,0.877,0.301,1.921,1.14,2.434c0.406,0.327,0.871,0.615,1.345,0.469c-0.565-0.462-1.453-0.81-1.751-1.623
					c-0.315-0.891-0.081-1.944,0.532-2.675c0.336-0.362,0.656-0.634,1.191-0.747c0.488-0.104,0.914,0.024,1.27,0.139
					c-0.492,0.592-1.297,0.647-2.121,0.57c-0.278,0.266-0.591,0.559-0.681,0.887l0.039,0.026c0.967-0.692,2.268-1.151,3.446-0.696
					c0.366,0.149,0.673,0.414,0.949,0.633c0.02,0.074,0.063,0.118,0.015,0.141c-0.379,0.053-0.771,0.352-1.179,0.087
					c-0.688-0.426-1.632-0.704-2.484-0.442l-0.23,0.127c0.441-0.076,0.7-0.057,1.042-0.037c1.11,0.061,1.43,0.482,1.697,1.177
					c-0.32,0.011-0.725,0.017-1.076-0.102c-0.684-0.125-1.162-1.269-2.004-0.695c-0.418,0.341-0.4,0.907-0.328,1.355
					c0.161,0.569,0.782,1.05,0.782,1.05c-0.141-0.227-0.187-0.394-0.18-0.66c0.005-0.17,0.042-0.201,0.094-0.429
					c0.948,0.505,0.805,1.247,1.352,1.797c0.325,0.328,1.023,0.298,1.476-0.06c0.299-0.238,0.482-0.479,0.469-0.861
					c-0.012-0.338-0.132-0.572-0.418-0.762c-0.152-0.123-0.438-0.166-0.672-0.049c-0.111,0.055-0.17,0.104-0.241,0.204
					c0.133-0.052,0.227-0.06,0.367-0.027c0.219,0.052,0.363,0.165,0.431,0.379c0.055,0.171,0.046,0.305-0.051,0.456
					c-0.137,0.217-0.371,0.273-0.621,0.217c-0.238-0.056-0.368-0.203-0.455-0.432c-0.135-0.351,0.035-0.682,0.337-0.9
					c0.363-0.264,0.821-0.16,1.145,0.102c0.25,0.202,0.395,0.554,0.363,0.949c-0.042,0.523-0.386,0.811-0.86,1.041
					c-0.346,0.166-0.59,0.127-0.973,0.141C97.064,127.693,96.883,127.671,96.563,127.634z"/>
				<path fill-rule="evenodd" clip-rule="evenodd" fill="#BCA45F" d="M95.903,126.429c-0.07-0.211-0.114-0.4,0-0.57
					c0.276,0.379,0.653,0.721,0.634,1.154C96.282,126.935,96.01,126.748,95.903,126.429z"/>
				<path fill-rule="evenodd" clip-rule="evenodd" fill="#BCA45F" d="M93.748,125.06c-0.327-0.262-0.482-0.939-0.495-1.408
					c0.47,0.453,0.669,1.187,1.002,1.674c0.098,0.219,0.179,0.424,0.191,0.598C94.102,125.628,94.086,125.33,93.748,125.06z"/>
				<path fill-rule="evenodd" clip-rule="evenodd" fill="#BCA45F" d="M97.104,124.478c-0.32-0.354-0.711-0.367-0.975-0.533
					c0,0,1.545,0.102,1.938,0.824C98.067,124.769,97.447,124.856,97.104,124.478z"/>
				<path fill-rule="evenodd" clip-rule="evenodd" fill="#BCA45F" d="M96.867,123.399c0.008-0.064,0.907-0.484,2.205,0.443
					c0.031,0.074-0.023,0.112-0.075,0.089C98.23,123.959,97.646,123.474,96.867,123.399z"/>
				<path fill-rule="evenodd" clip-rule="evenodd" fill="#BCA45F" d="M95.992,122.892c0.696-0.531,1.567-0.291,1.567-0.291
					S96.951,123.032,95.992,122.892z"/>
				<circle fill-rule="evenodd" clip-rule="evenodd" fill="#BCA45F" cx="97.974" cy="126.127" r="0.27"/>
				<path fill-rule="evenodd" clip-rule="evenodd" fill="#BCA45F" d="M102.888,122.413c1.343,0.164,2.089,0.925,3.22,1.28
					c0.77,0.309,1.812,1.801,1.812,1.801s-0.355-0.013-1.039-0.218c-1.15-0.352-1.16-1.239-1.748-1.773
					c-0.199-0.129-0.389-0.258-0.57-0.254c-0.068,0.065,0.053,0.148,0.113,0.254c0.236,0.406,0.623,0.762,1.025,1.152
					c0.549,0.543,0.75,1.266,0.773,2.093c-0.033,0.036-0.099,0.016-0.126,0.026c-0.427-0.391-0.917-0.766-1.129-1.23
					c-0.296-0.877-0.301-1.922-1.141-2.433c-0.403-0.328-0.87-0.617-1.343-0.47c0.564,0.461,1.452,0.81,1.749,1.622
					c0.316,0.891,0.083,1.944-0.531,2.676c-0.336,0.362-0.655,0.634-1.192,0.747c-0.487,0.102-0.913-0.024-1.269-0.141
					c0.491-0.59,1.296-0.646,2.12-0.57c0.279-0.266,0.594-0.559,0.684-0.887l-0.041-0.024c-0.967,0.692-2.268,1.151-3.446,0.696
					c-0.366-0.149-0.673-0.412-0.95-0.634c-0.019-0.073-0.062-0.118-0.014-0.14c0.378-0.055,0.771-0.353,1.179-0.09
					c0.688,0.429,1.632,0.706,2.484,0.445l0.23-0.127c-0.441,0.075-0.7,0.056-1.04,0.037c-1.111-0.062-1.43-0.484-1.699-1.177
					c0.318-0.011,0.725-0.017,1.078,0.101c0.684,0.127,1.16,1.27,2.001,0.697c0.419-0.342,0.399-0.91,0.331-1.356
					c-0.163-0.57-0.783-1.051-0.783-1.051c0.141,0.227,0.186,0.394,0.179,0.66c-0.004,0.171-0.04,0.202-0.094,0.429
					c-0.948-0.506-0.806-1.248-1.352-1.797c-0.324-0.328-1.023-0.297-1.474,0.061c-0.301,0.236-0.483,0.479-0.472,0.861
					c0.015,0.338,0.132,0.571,0.421,0.76c0.152,0.125,0.436,0.17,0.672,0.051c0.107-0.055,0.168-0.105,0.239-0.207
					c-0.133,0.055-0.228,0.062-0.367,0.03c-0.219-0.051-0.362-0.168-0.431-0.38c-0.055-0.171-0.045-0.307,0.051-0.457
					c0.137-0.217,0.371-0.272,0.621-0.215c0.238,0.055,0.368,0.201,0.457,0.431c0.134,0.351-0.035,0.68-0.339,0.901
					c-0.362,0.264-0.821,0.158-1.146-0.104c-0.248-0.2-0.394-0.553-0.362-0.947c0.042-0.525,0.387-0.812,0.862-1.041
					c0.344-0.166,0.587-0.129,0.97-0.141C102.387,122.353,102.568,122.373,102.888,122.413z"/>
				<path fill-rule="evenodd" clip-rule="evenodd" fill="#BCA45F" d="M103.548,123.618c0.071,0.211,0.113,0.399,0,0.568
					c-0.276-0.377-0.655-0.72-0.634-1.152C103.169,123.114,103.441,123.3,103.548,123.618z"/>
				<path fill-rule="evenodd" clip-rule="evenodd" fill="#BCA45F" d="M107.173,124.822c0.126,0.144,0.206,0.233,0.241,0.431
					c-0.367-0.055-0.627-0.357-0.9-0.521c-0.404-0.354-1.113-1.164-1.113-1.164C106.212,123.885,106.591,124.165,107.173,124.822z"
					/>
				<path fill-rule="evenodd" clip-rule="evenodd" fill="#BCA45F" d="M105.703,124.985c0.328,0.264,0.484,0.939,0.496,1.408
					c-0.469-0.453-0.67-1.186-1.003-1.673c-0.097-0.218-0.18-0.425-0.191-0.597C105.352,124.417,105.365,124.718,105.703,124.985z"
					/>
				<path fill-rule="evenodd" clip-rule="evenodd" fill="#BCA45F" d="M102.348,125.569c0.32,0.352,0.711,0.366,0.975,0.533
					c0,0-1.545-0.101-1.938-0.824C101.384,125.278,102.004,125.19,102.348,125.569z"/>
				<path fill-rule="evenodd" clip-rule="evenodd" fill="#BCA45F" d="M102.584,126.646c-0.008,0.066-0.908,0.483-2.205-0.444
					c-0.03-0.074,0.023-0.11,0.075-0.087C101.221,126.088,101.805,126.572,102.584,126.646z"/>
				<path fill-rule="evenodd" clip-rule="evenodd" fill="#BCA45F" d="M103.458,127.154c-0.696,0.532-1.567,0.292-1.567,0.292
					S102.5,127.013,103.458,127.154z"/>
				<circle fill-rule="evenodd" clip-rule="evenodd" fill="#BCA45F" cx="101.478" cy="123.919" r="0.27"/>
				<path fill-rule="evenodd" clip-rule="evenodd" fill="#BCA45F" d="M112.993,126.657c0.098,0.208,0.062,0.407-0.086,0.584
					c-0.18,0.218-0.477,0.28-0.712,0.125c-0.131-0.086-0.206-0.235-0.229-0.329l0.015-0.05c0.105,0.029,0.306,0.167,0.481,0.088
					c0.118-0.053,0.183-0.119,0.227-0.24c0.069-0.185-0.065-0.368-0.14-0.482C112.721,126.33,112.903,126.468,112.993,126.657z"/>
				<circle fill-rule="evenodd" clip-rule="evenodd" fill="#BCA45F" cx="112.49" cy="126.881" r="0.734"/>
				<circle fill-rule="evenodd" clip-rule="evenodd" fill="#BCA45F" cx="111.688" cy="123.954" r="0.27"/>
				<circle fill-rule="evenodd" clip-rule="evenodd" fill="#BCA45F" cx="109.462" cy="126.185" r="0.27"/>
				<path fill-rule="evenodd" clip-rule="evenodd" fill="#BCA45F" d="M109.67,124.683c-0.489,0.111-1.066,0.031-1.407-0.255
					c-0.051-0.093,0.031-0.105,0.09-0.101C108.801,124.345,109.234,124.503,109.67,124.683z"/>
				<path fill-rule="evenodd" clip-rule="evenodd" fill="#BCA45F" d="M109.252,123.592c0.073,0.087,0.162,0.226,0.241,0.392
					l-0.039,0.015c-0.437-0.321-0.923-0.633-1.052-1.104c-0.011-0.177,0.142-0.051,0.24-0.024L109.252,123.592z"/>
				<path fill-rule="evenodd" clip-rule="evenodd" fill="#BCA45F" d="M110.201,123.313c-0.027,0.26,0.042,0.467-0.013,0.76
					c-0.132-0.473-0.391-0.914-0.266-1.407C110.066,122.807,110.086,123.073,110.201,123.313z"/>
			</g>
		</g>
		<g>
			<polygon fill-rule="evenodd" clip-rule="evenodd" fill="#BCA45F" points="52.405,105.946 52.405,121.713 68.172,121.713 
				68.172,121.128 52.988,121.128 52.988,105.946 			"/>
			<polygon fill-rule="evenodd" clip-rule="evenodd" fill="#BCA45F" points="44.814,129.304 68.172,129.304 68.172,128.72 
				45.397,128.72 45.397,105.946 44.814,105.946 			"/>
			<g>
				<path fill-rule="evenodd" clip-rule="evenodd" fill="#BCA45F" d="M53.166,125.557c-0.605,0.831-0.995,1.614-2.046,1.911
					c-0.86,0.244-1.628,0.361-2.28-0.252c-0.431-0.404-0.603-0.801-0.603-1.393c-0.456,0.019-0.753-0.072-1.121-0.344
					c-0.366-0.271-0.53-0.527-0.659-0.965c-0.201-0.673,0.094-1.346,0.508-2.063c0.425-0.745,1.037-1.097,1.592-1.515l0.055,0.132
					c-0.242,0.152-2.105,1.696-1.926,3.258c0.033,0.294,0.312,0.581,0.672,0.696c0.466,0.15,0.965,0.01,1.18-0.43
					c0.11-0.232,0.152-0.423,0.049-0.658c-0.067-0.158-0.142-0.244-0.29-0.332c0.153,0.236,0.136,0.51-0.052,0.723
					c-0.158,0.181-0.351,0.247-0.584,0.189c-0.181-0.041-0.289-0.126-0.379-0.291c-0.099-0.178-0.095-0.327-0.025-0.519
					c0.118-0.328,0.438-0.465,0.785-0.433c0.341,0.033,0.54,0.238,0.686,0.546c0.141,0.302,0.152,0.595-0.01,0.855
					c-0.175,0.29-0.538,0.497-0.967,0.526c-0.305,0.021-0.496-0.105-0.762-0.178c0.256,0.299,0.551,0.506,0.99,0.52
					c0.648,0.022,1.064-0.541,1.33-1c0.077-0.336-0.063-0.63-0.088-0.927c0.021-0.594,0.262-1.083,0.658-1.433
					c0.195,0.197,0.12,0.577,0.115,0.89c-0.062,0.387-0.249,0.754-0.418,1.165c0.033,0.019,0.09,0.042,0.1,0.038
					c0.507-0.44,0.566-1.077,0.99-1.472c0.317-0.221,0.672-0.336,1.001-0.404l0.038,0.075c-0.225,0.364-0.171,0.922-0.672,1.191
					c-0.437,0.187-0.952,0.348-1.318,0.786c0.088,0.049,0.217,0.004,0.265-0.013c0.593-0.304,1.245-0.492,1.914-0.329
					c0.083,0.023,0.023,0.096-0.023,0.152c-0.352,0.305-0.758,0.555-1.281,0.596c-0.336-0.029-0.7-0.105-1.065-0.178
					c-0.396,0.154-0.607,0.623-0.924,0.95c-0.344,0.633,0.329,1.332,0.329,1.332s-0.192-0.8-0.024-1.128
					c0.113-0.274,0.259-0.453,0.545-0.559c0.375-0.141,0.729-0.055,1,0.241c0.195,0.212,0.297,0.415,0.242,0.696
					c-0.044,0.225-0.134,0.367-0.33,0.482c-0.21,0.122-0.413,0.161-0.621,0.037c-0.163-0.095-0.238-0.219-0.268-0.404
					c-0.028-0.195,0.014-0.344,0.152-0.482c0.156-0.152,0.379-0.207,0.546-0.126c0.089-0.013,0.169,0.056,0.19,0.036
					c-0.1-0.301-0.414-0.392-0.736-0.354c-0.166,0.04-0.373,0.13-0.518,0.342c-0.109,0.202-0.203,0.506-0.115,0.799
					c0.144,0.33,0.503,0.724,0.874,0.785c1.453,0.125,2.504-0.811,3.274-1.9C53.229,125.4,53.195,125.495,53.166,125.557z"/>
				<path fill-rule="evenodd" clip-rule="evenodd" fill="#BCA45F" d="M63.104,127.634c1.342-0.164,2.087-0.924,3.219-1.279
					c0.771-0.31,1.813-1.801,1.813-1.801s-0.354,0.014-1.039,0.217c-1.151,0.354-1.161,1.24-1.749,1.774
					c-0.2,0.129-0.388,0.258-0.57,0.253c-0.067-0.065,0.054-0.147,0.115-0.253c0.236-0.407,0.622-0.762,1.025-1.153
					c0.547-0.542,0.749-1.265,0.773-2.092c-0.035-0.037-0.102-0.014-0.127-0.024c-0.426,0.39-0.917,0.765-1.129,1.228
					c-0.295,0.878-0.301,1.924-1.141,2.434c-0.404,0.328-0.869,0.616-1.343,0.469c0.565-0.459,1.452-0.81,1.749-1.621
					c0.316-0.891,0.082-1.945-0.533-2.676c-0.334-0.361-0.654-0.634-1.191-0.747c-0.485-0.102-0.912,0.024-1.267,0.14
					c0.489,0.592,1.296,0.646,2.118,0.571c0.28,0.266,0.594,0.559,0.683,0.887l-0.038,0.024c-0.967-0.692-2.27-1.152-3.447-0.696
					c-0.366,0.151-0.674,0.413-0.951,0.634c-0.018,0.073-0.062,0.119-0.013,0.14c0.378,0.055,0.771,0.352,1.179,0.089
					c0.688-0.428,1.63-0.706,2.484-0.443l0.23,0.125c-0.441-0.075-0.701-0.055-1.042-0.036c-1.109,0.062-1.429,0.484-1.698,1.177
					c0.32,0.01,0.726,0.018,1.078-0.102c0.683-0.125,1.162-1.268,2.002-0.696c0.419,0.344,0.399,0.91,0.329,1.356
					c-0.161,0.57-0.784,1.051-0.784,1.051c0.144-0.227,0.188-0.393,0.18-0.66c-0.004-0.17-0.04-0.203-0.091-0.43
					c-0.948,0.506-0.806,1.248-1.352,1.799c-0.328,0.326-1.024,0.298-1.476-0.062c-0.301-0.237-0.482-0.479-0.47-0.86
					c0.013-0.339,0.13-0.573,0.419-0.762c0.151-0.124,0.437-0.168,0.671-0.05c0.11,0.055,0.169,0.104,0.239,0.206
					c-0.131-0.054-0.227-0.062-0.365-0.029c-0.219,0.051-0.362,0.167-0.432,0.379c-0.053,0.172-0.045,0.307,0.051,0.457
					c0.137,0.218,0.371,0.272,0.621,0.215c0.238-0.055,0.37-0.201,0.457-0.43c0.135-0.352-0.035-0.681-0.337-0.9
					c-0.364-0.265-0.824-0.159-1.147,0.103c-0.248,0.2-0.395,0.552-0.361,0.948c0.043,0.524,0.387,0.811,0.86,1.039
					c0.345,0.168,0.59,0.129,0.973,0.141C62.603,127.696,62.786,127.674,63.104,127.634z"/>
				<path fill-rule="evenodd" clip-rule="evenodd" fill="#BCA45F" d="M63.765,126.431c0.07-0.211,0.114-0.401-0.002-0.57
					c-0.273,0.379-0.653,0.721-0.633,1.152C63.386,126.936,63.656,126.749,63.765,126.431z"/>
				<path fill-rule="evenodd" clip-rule="evenodd" fill="#BCA45F" d="M67.388,125.226c0.128-0.145,0.207-0.234,0.242-0.431
					c-0.367,0.055-0.626,0.358-0.9,0.52c-0.404,0.354-1.112,1.165-1.112,1.165C66.43,126.163,66.806,125.884,67.388,125.226z"/>
				<path fill-rule="evenodd" clip-rule="evenodd" fill="#BCA45F" d="M65.919,125.062c0.328-0.263,0.483-0.938,0.496-1.408
					c-0.469,0.454-0.669,1.188-1.004,1.674c-0.095,0.219-0.178,0.424-0.189,0.597C65.566,125.631,65.582,125.331,65.919,125.062z"/>
				<path fill-rule="evenodd" clip-rule="evenodd" fill="#BCA45F" d="M62.563,124.479c0.319-0.353,0.71-0.367,0.976-0.532
					c0,0-1.546,0.1-1.94,0.822C61.599,124.769,62.22,124.858,62.563,124.479z"/>
				<path fill-rule="evenodd" clip-rule="evenodd" fill="#BCA45F" d="M62.802,123.4c-0.009-0.065-0.908-0.483-2.207,0.444
					c-0.029,0.074,0.023,0.111,0.077,0.09C61.438,123.96,62.02,123.476,62.802,123.4z"/>
				<path fill-rule="evenodd" clip-rule="evenodd" fill="#BCA45F" d="M63.675,122.894c-0.697-0.532-1.566-0.29-1.566-0.29
					S62.716,123.034,63.675,122.894z"/>
				<circle fill-rule="evenodd" clip-rule="evenodd" fill="#BCA45F" cx="61.694" cy="126.128" r="0.27"/>
				<path fill-rule="evenodd" clip-rule="evenodd" fill="#BCA45F" d="M56.779,122.416c-1.342,0.164-2.088,0.923-3.219,1.278
					c-0.771,0.311-1.814,1.801-1.814,1.801s0.355-0.013,1.041-0.216c1.15-0.353,1.161-1.241,1.75-1.774
					c0.199-0.128,0.387-0.258,0.57-0.253c0.064,0.065-0.055,0.147-0.115,0.253c-0.236,0.407-0.623,0.762-1.027,1.153
					c-0.545,0.542-0.748,1.265-0.771,2.091c0.032,0.037,0.099,0.015,0.126,0.026c0.426-0.391,0.915-0.765,1.128-1.229
					c0.295-0.876,0.302-1.922,1.141-2.435c0.406-0.325,0.871-0.614,1.344-0.468c-0.565,0.461-1.452,0.809-1.749,1.621
					c-0.317,0.893-0.082,1.945,0.532,2.676c0.336,0.362,0.655,0.635,1.191,0.748c0.487,0.102,0.914-0.025,1.267-0.14
					c-0.489-0.591-1.295-0.647-2.118-0.57c-0.279-0.266-0.594-0.56-0.682-0.887l0.037-0.027c0.969,0.694,2.27,1.152,3.449,0.699
					c0.366-0.152,0.673-0.414,0.949-0.636c0.019-0.072,0.062-0.117,0.013-0.138c-0.379-0.055-0.771-0.353-1.18-0.09
					c-0.686,0.427-1.63,0.706-2.483,0.442l-0.23-0.126c0.443,0.075,0.701,0.058,1.043,0.039c1.11-0.063,1.428-0.485,1.698-1.179
					c-0.32-0.01-0.727-0.017-1.078,0.101c-0.683,0.126-1.161,1.27-2.003,0.696c-0.417-0.341-0.4-0.908-0.33-1.355
					c0.163-0.568,0.784-1.049,0.784-1.049c-0.141,0.225-0.187,0.392-0.18,0.66c0.005,0.17,0.042,0.201,0.094,0.427
					c0.948-0.504,0.805-1.246,1.352-1.797c0.325-0.327,1.023-0.296,1.475,0.06c0.299,0.238,0.483,0.48,0.469,0.863
					c-0.012,0.338-0.13,0.572-0.418,0.761c-0.152,0.124-0.436,0.168-0.672,0.051c-0.11-0.056-0.168-0.105-0.24-0.207
					c0.133,0.055,0.228,0.062,0.367,0.028c0.219-0.052,0.361-0.166,0.431-0.38c0.055-0.171,0.044-0.305-0.05-0.456
					c-0.138-0.217-0.372-0.271-0.621-0.215c-0.239,0.055-0.368,0.202-0.457,0.43c-0.135,0.352,0.034,0.682,0.338,0.901
					c0.363,0.265,0.821,0.159,1.146-0.102c0.249-0.2,0.394-0.554,0.362-0.949c-0.042-0.524-0.387-0.812-0.862-1.039
					c-0.345-0.168-0.589-0.13-0.972-0.141C57.283,122.354,57.101,122.376,56.779,122.416z"/>
				<path fill-rule="evenodd" clip-rule="evenodd" fill="#BCA45F" d="M56.12,123.619c-0.07,0.212-0.114,0.399,0.001,0.57
					c0.275-0.379,0.654-0.72,0.633-1.152C56.5,123.114,56.227,123.3,56.12,123.619z"/>
				<path fill-rule="evenodd" clip-rule="evenodd" fill="#BCA45F" d="M52.495,124.822c-0.128,0.146-0.206,0.235-0.241,0.431
					c0.367-0.053,0.628-0.356,0.9-0.518c0.404-0.354,1.113-1.166,1.113-1.166C53.457,123.886,53.077,124.166,52.495,124.822z"/>
				<path fill-rule="evenodd" clip-rule="evenodd" fill="#BCA45F" d="M53.965,124.987c-0.328,0.264-0.484,0.939-0.496,1.409
					c0.471-0.454,0.67-1.188,1.004-1.675c0.096-0.217,0.178-0.424,0.189-0.596C54.316,124.419,54.303,124.718,53.965,124.987z"/>
				<path fill-rule="evenodd" clip-rule="evenodd" fill="#BCA45F" d="M57.32,125.571c-0.32,0.352-0.709,0.365-0.975,0.532
					c0,0,1.545-0.102,1.938-0.823C58.284,125.28,57.663,125.192,57.32,125.571z"/>
				<path fill-rule="evenodd" clip-rule="evenodd" fill="#BCA45F" d="M57.084,126.649c0.008,0.063,0.907,0.482,2.206-0.444
					c0.03-0.074-0.024-0.11-0.078-0.09C58.445,126.089,57.863,126.575,57.084,126.649z"/>
				<path fill-rule="evenodd" clip-rule="evenodd" fill="#BCA45F" d="M56.209,127.155c0.697,0.533,1.567,0.292,1.567,0.292
					S57.17,127.015,56.209,127.155z"/>
				<circle fill-rule="evenodd" clip-rule="evenodd" fill="#BCA45F" cx="58.19" cy="123.921" r="0.27"/>
				<path fill-rule="evenodd" clip-rule="evenodd" fill="#BCA45F" d="M46.484,110.979c0.164-1.341,0.925-2.088,1.281-3.22
					c0.308-0.771,1.8-1.812,1.8-1.812s-0.013,0.355-0.215,1.039c-0.354,1.152-1.242,1.161-1.776,1.75
					c-0.127,0.199-0.258,0.387-0.254,0.569c0.065,0.067,0.148-0.053,0.254-0.115c0.408-0.236,0.762-0.622,1.155-1.024
					c0.54-0.547,1.263-0.75,2.091-0.773c0.035,0.032,0.014,0.101,0.025,0.126c-0.393,0.426-0.765,0.918-1.23,1.128
					c-0.877,0.296-1.922,0.302-2.434,1.142c-0.327,0.404-0.613,0.869-0.469,1.343c0.462-0.563,0.809-1.45,1.622-1.749
					c0.891-0.316,1.945-0.082,2.675,0.533c0.361,0.334,0.634,0.654,0.748,1.191c0.104,0.485-0.024,0.912-0.139,1.268
					c-0.593-0.49-0.646-1.297-0.572-2.121c-0.264-0.278-0.557-0.592-0.887-0.681l-0.024,0.039c0.691,0.968,1.151,2.269,0.696,3.446
					c-0.149,0.367-0.414,0.675-0.633,0.951c-0.074,0.017-0.118,0.061-0.141,0.013c-0.055-0.379-0.352-0.771-0.087-1.179
					c0.426-0.688,0.704-1.63,0.442-2.485l-0.127-0.229c0.076,0.441,0.057,0.701,0.037,1.041c-0.062,1.11-0.485,1.43-1.178,1.699
					c-0.01-0.32-0.016-0.725,0.102-1.078c0.127-0.683,1.271-1.16,0.697-2.002c-0.342-0.419-0.91-0.399-1.356-0.33
					c-0.569,0.162-1.05,0.783-1.05,0.783c0.227-0.141,0.394-0.185,0.659-0.178c0.171,0.004,0.202,0.039,0.429,0.091
					c-0.503,0.948-1.248,0.806-1.797,1.353c-0.328,0.326-0.297,1.025,0.06,1.476c0.238,0.3,0.481,0.481,0.863,0.469
					c0.337-0.012,0.57-0.132,0.761-0.419c0.123-0.151,0.166-0.436,0.049-0.671c-0.056-0.11-0.106-0.169-0.205-0.241
					c0.053,0.135,0.062,0.229,0.028,0.367c-0.052,0.219-0.167,0.362-0.38,0.43c-0.171,0.057-0.305,0.047-0.456-0.049
					c-0.216-0.137-0.273-0.371-0.216-0.621c0.055-0.238,0.203-0.369,0.432-0.457c0.35-0.133,0.679,0.035,0.9,0.338
					c0.263,0.362,0.158,0.823-0.104,1.145c-0.2,0.25-0.553,0.396-0.946,0.363c-0.526-0.041-0.812-0.387-1.042-0.86
					c-0.168-0.345-0.127-0.59-0.141-0.973C46.424,111.48,46.445,111.298,46.484,110.979z"/>
				<path fill-rule="evenodd" clip-rule="evenodd" fill="#BCA45F" d="M47.689,110.318c0.211-0.07,0.399-0.114,0.57,0
					c-0.381,0.275-0.722,0.655-1.154,0.635C47.184,110.697,47.371,110.426,47.689,110.318z"/>
				<path fill-rule="evenodd" clip-rule="evenodd" fill="#BCA45F" d="M49.059,108.162c0.261-0.326,0.938-0.481,1.408-0.494
					c-0.453,0.47-1.187,0.669-1.675,1.004c-0.219,0.095-0.423,0.177-0.597,0.189C48.488,108.517,48.788,108.501,49.059,108.162z"/>
				<path fill-rule="evenodd" clip-rule="evenodd" fill="#BCA45F" d="M49.641,111.52c0.354-0.32,0.367-0.711,0.533-0.975
					c0,0-0.102,1.545-0.823,1.939C49.351,112.484,49.262,111.863,49.641,111.52z"/>
				<path fill-rule="evenodd" clip-rule="evenodd" fill="#BCA45F" d="M50.719,111.282c0.064,0.009,0.482,0.909-0.445,2.206
					c-0.072,0.031-0.111-0.022-0.087-0.076C50.16,112.645,50.645,112.063,50.719,111.282z"/>
				<path fill-rule="evenodd" clip-rule="evenodd" fill="#BCA45F" d="M51.226,110.408c0.532,0.697,0.29,1.566,0.29,1.566
					S51.086,111.367,51.226,110.408z"/>
				<circle fill-rule="evenodd" clip-rule="evenodd" fill="#BCA45F" cx="47.992" cy="112.388" r="0.269"/>
				<path fill-rule="evenodd" clip-rule="evenodd" fill="#BCA45F" d="M51.705,117.304c-0.164,1.342-0.924,2.088-1.28,3.219
					c-0.309,0.771-1.801,1.814-1.801,1.814s0.013-0.357,0.216-1.041c0.354-1.15,1.241-1.161,1.775-1.75
					c0.127-0.199,0.258-0.385,0.252-0.57c-0.063-0.064-0.148,0.054-0.252,0.115c-0.406,0.236-0.762,0.622-1.154,1.025
					c-0.543,0.547-1.263,0.749-2.092,0.773c-0.035-0.032-0.014-0.099-0.025-0.126c0.391-0.427,0.765-0.917,1.229-1.128
					c0.878-0.295,1.923-0.302,2.434-1.141c0.328-0.406,0.616-0.871,0.47-1.344c-0.462,0.564-0.81,1.451-1.623,1.749
					c-0.89,0.317-1.944,0.082-2.674-0.531c-0.361-0.337-0.635-0.656-0.748-1.192c-0.104-0.487,0.025-0.913,0.139-1.267
					c0.592,0.489,0.646,1.295,0.572,2.118c0.264,0.281,0.557,0.594,0.887,0.682l0.025-0.039c-0.692-0.967-1.152-2.268-0.697-3.446
					c0.149-0.367,0.412-0.674,0.633-0.95c0.074-0.017,0.118-0.062,0.141-0.013c0.055,0.379,0.352,0.771,0.088,1.18
					c-0.427,0.686-0.705,1.63-0.443,2.483l0.127,0.23c-0.075-0.443-0.059-0.703-0.037-1.043c0.062-1.11,0.484-1.428,1.178-1.697
					c0.01,0.32,0.016,0.727-0.102,1.076c-0.127,0.684-1.271,1.162-0.697,2.004c0.342,0.417,0.908,0.398,1.356,0.33
					c0.569-0.163,1.05-0.784,1.05-0.784c-0.227,0.141-0.394,0.188-0.659,0.179c-0.171-0.004-0.202-0.041-0.429-0.093
					c0.504-0.946,1.246-0.805,1.797-1.352c0.328-0.325,0.297-1.023-0.061-1.475c-0.238-0.3-0.479-0.483-0.862-0.469
					c-0.339,0.012-0.57,0.13-0.761,0.418c-0.123,0.152-0.168,0.438-0.049,0.672c0.056,0.108,0.105,0.169,0.205,0.24
					c-0.053-0.134-0.06-0.228-0.027-0.368c0.051-0.218,0.166-0.362,0.379-0.43c0.17-0.055,0.305-0.044,0.456,0.051
					c0.218,0.137,0.273,0.371,0.216,0.619c-0.055,0.241-0.203,0.37-0.431,0.457c-0.351,0.136-0.681-0.033-0.901-0.337
					c-0.264-0.361-0.157-0.821,0.102-1.145c0.202-0.248,0.555-0.395,0.951-0.364c0.523,0.044,0.809,0.388,1.039,0.862
					c0.166,0.346,0.127,0.589,0.141,0.972C51.766,116.802,51.744,116.983,51.705,117.304z"/>
				<path fill-rule="evenodd" clip-rule="evenodd" fill="#BCA45F" d="M50.5,117.963c-0.211,0.071-0.399,0.114-0.57,0
					c0.381-0.274,0.721-0.655,1.154-0.636C51.006,117.584,50.818,117.856,50.5,117.963z"/>
				<path fill-rule="evenodd" clip-rule="evenodd" fill="#BCA45F" d="M49.296,121.588c-0.145,0.126-0.234,0.207-0.431,0.242
					c0.053-0.368,0.357-0.629,0.521-0.901c0.353-0.403,1.163-1.111,1.163-1.111C50.232,120.627,49.952,121.006,49.296,121.588z"/>
				<path fill-rule="evenodd" clip-rule="evenodd" fill="#BCA45F" d="M49.132,120.116c-0.262,0.331-0.938,0.486-1.409,0.499
					c0.453-0.472,1.187-0.669,1.675-1.004c0.218-0.098,0.425-0.179,0.597-0.191C49.701,119.767,49.4,119.782,49.132,120.116z"/>
				<path fill-rule="evenodd" clip-rule="evenodd" fill="#BCA45F" d="M48.549,116.763c-0.354,0.32-0.367,0.711-0.533,0.977
					c0,0,0.102-1.547,0.823-1.941C48.839,115.798,48.928,116.42,48.549,116.763z"/>
				<path fill-rule="evenodd" clip-rule="evenodd" fill="#BCA45F" d="M47.472,116.998c-0.066-0.005-0.483-0.907,0.442-2.204
					c0.074-0.031,0.112,0.023,0.089,0.075C48.029,115.637,47.545,116.22,47.472,116.998z"/>
				<path fill-rule="evenodd" clip-rule="evenodd" fill="#BCA45F" d="M46.965,117.874c-0.533-0.697-0.293-1.567-0.293-1.567
					S47.104,116.915,46.965,117.874z"/>
				<circle fill-rule="evenodd" clip-rule="evenodd" fill="#BCA45F" cx="50.198" cy="115.893" r="0.27"/>
				<path fill-rule="evenodd" clip-rule="evenodd" fill="#BCA45F" d="M47.461,127.408c-0.209,0.099-0.408,0.063-0.584-0.086
					c-0.217-0.18-0.281-0.476-0.127-0.714c0.086-0.13,0.236-0.203,0.33-0.228l0.052,0.013c-0.031,0.107-0.168,0.308-0.091,0.483
					c0.053,0.117,0.121,0.183,0.242,0.227c0.184,0.067,0.368-0.065,0.481-0.14C47.787,127.136,47.65,127.318,47.461,127.408z"/>
				<circle fill-rule="evenodd" clip-rule="evenodd" fill="#BCA45F" cx="47.237" cy="126.906" r="0.736"/>
				<circle fill-rule="evenodd" clip-rule="evenodd" fill="#BCA45F" cx="50.164" cy="126.103" r="0.27"/>
				<circle fill-rule="evenodd" clip-rule="evenodd" fill="#BCA45F" cx="47.933" cy="123.877" r="0.27"/>
				<path fill-rule="evenodd" clip-rule="evenodd" fill="#BCA45F" d="M49.436,124.085c-0.111-0.489-0.033-1.066,0.254-1.406
					c0.094-0.053,0.106,0.03,0.102,0.088C49.773,123.216,49.615,123.649,49.436,124.085z"/>
				<path fill-rule="evenodd" clip-rule="evenodd" fill="#BCA45F" d="M50.525,123.666c-0.086,0.075-0.226,0.163-0.393,0.242
					l-0.012-0.039c0.32-0.435,0.632-0.922,1.101-1.052c0.18-0.011,0.054,0.142,0.027,0.24L50.525,123.666z"/>
				<path fill-rule="evenodd" clip-rule="evenodd" fill="#BCA45F" d="M50.805,124.616c-0.262-0.027-0.467,0.042-0.76-0.012
					c0.474-0.134,0.914-0.392,1.406-0.267C51.312,124.482,51.043,124.501,50.805,124.616z"/>
			</g>
		</g>
	</g>
	<path fill-rule="evenodd" clip-rule="evenodd" d="M34.229,61.804c1.216,0.117,2.361,0.771,3.414,1.402
		c0.747,0.747,1.752,1.611,2.08,2.642c0.514,0.513,0.373,1.308,0.84,1.847c0.234,1.496,0.117,2.712,0.234,4.255
		c-0.164,1.145-0.677,2.126-1.005,3.202c-1.028,1.543-2.547,2.92-4.395,3.201c-0.841,0.468-1.87,0.023-2.853,0.164
		c-1.191-0.328-2.476-0.469-3.6-0.958c-1.4-0.702-2.29-1.87-3.248-3.086c-0.98-1.543-1.262-3.413-1.519-5.167
		c0.187-0.77-0.095-1.543,0.187-2.29c0.141-1.098,0.771-1.987,1.286-2.922c0.257-0.304,0.538-0.747,1.004-0.679
		c1.263-1.471,3.108-1.541,4.816-1.892C32.452,61.616,33.41,61.289,34.229,61.804z M92.688,60.519
		c0.21,1.402,0.07,2.875,0.117,4.207c-0.302,0.865,0.351,1.846-0.117,2.735c0.141,1.121,0.21,2.5-0.068,3.599
		c0.396,2.292-0.305,4.629,0.186,6.896c0.468,0.794,1.216,0.07,1.777,0.443c0.047,0.632-0.655,0.655-1.052,0.843
		c-0.585,0.372-1.005,1.051-1.753,1.004c-0.633,0.373-1.355,0.63-2.057,0.678c-0.515-0.771-0.328-1.589,0.092-2.36
		c-0.139-0.467-0.303-1.146,0.117-1.567c0.234-2.032,0.211-3.996,0.444-6.052c0-0.491,0.515-0.469,0.677-0.89
		c0.727-1.146-0.77-1.659-0.77-2.641c0.023-0.375,0.163-0.888-0.117-1.194c-0.211-0.957,0.233-1.915-0.396-2.805
		c-0.164-1.121-1.381-0.817-2.129-1.121c-0.21,0.07-0.562,0.141-0.723-0.047c0-0.561,0.63-0.748,0.934-1.121
		c1.123-1.239,2.969-0.889,4.488-0.959L92.688,60.519z M117.49,60.284c0.21,4.533-0.164,9.07-0.117,13.744
		c-0.234,1.59-0.234,3.062-0.35,4.722c-0.562,1.005-1.754,1.427-2.736,1.965c-0.35-0.749-1.426-0.866-1.566-1.754
		c-0.373-0.492-1.121-0.327-1.309-1.005c-0.443-0.187-0.724-0.748-1.169-0.96c-0.491-0.699-1.473-1.167-1.448-2.126
		c-0.469-0.327-0.586-1.146-1.239-0.89c-0.21-0.794-1.332-0.629-1.122-1.589c-0.258-0.467-0.654-0.63-0.912-1.121
		c-0.794-0.211-0.232-1.332-1.168-1.449c-0.023-0.958-1.427-0.516-1.239-1.521c-0.188-0.28-0.491-0.372-0.841-0.327
		c-0.679,0.327-0.047,1.076-0.327,1.613c0.187,0.654-0.375,1.217-0.164,1.87c-0.444,0.653,0.374,1.332-0.07,2.058
		c0.141,0.817,0.234,1.752,0.117,2.524c0.233,0.911,0.258,1.892,0.56,2.758l-0.045,0.281c-0.469,0.444-1.24,0.351-1.521,0.958
		c-0.536,0.187-0.98,1.051-1.566,0.562c-0.162-0.305,0.025-0.772,0.096-1.122c0.162-0.982-0.096-1.917,0.232-2.807
		c0.188-3.949,0.374-7.971,0.047-11.852c0.047-0.63-0.279-1.215-0.162-1.845c0.115,0.023,0.209,0,0.279-0.117
		c-0.817-0.515-1.801-0.374-2.806-0.327h-0.396c-0.096-0.422,0.396-0.748,0.56-1.122c0.492-0.305,1.052-0.726,1.59-1.075
		c0.679,0,1.449-0.21,2.056-0.047c0.469-0.047,0.819-0.022,1.194,0.164c0.466,1.051,1.309,1.963,1.612,3.084
		c0.631,0.726,0.771,1.777,1.684,2.361c0.326,0.326,0.607,0.771,0.747,1.239c0.864,0.888,1.191,2.081,2.243,2.806
		c-0.139,0.84,0.983,0.443,1.007,1.237c0.397,0.679,0.957,1.147,1.52,1.731c0.63,0.725,1.354,1.425,1.892,2.127
		c0.749,0.584,1.52,1.168,2.198,1.801c0.63,0.045,0.397-0.679,0.608-1.006c0.771-1.052-0.469-1.754-0.049-2.875
		c-0.092-0.912,0.328-1.778,0.492-2.688c-0.584-0.608-0.516-1.52-0.841-2.245c0.21-0.817,0.325-1.66,0.349-2.524
		c-0.77-0.63,0.117-2.032-0.724-2.688c-0.632-0.747-1.613-0.585-2.36-1.005c0.841-0.585,1.777-1.24,2.735-1.683
		C115.971,60.425,116.836,59.466,117.49,60.284z M84.883,60.962c0.141,0.585-0.422,0.889-0.397,1.449
		c-0.492,0.842-1.216,1.566-1.122,2.643c-0.374,0.84-0.63,1.774-1.216,2.478c-0.188,0.84-0.468,1.683-1.191,2.242
		c-0.141,0.96-0.258,1.988-1.123,2.618c0,0.516-0.445,0.819-0.396,1.357c-0.211,0.607-0.936,1.028-0.89,1.729
		c-0.444,1.006-0.841,2.011-1.354,2.991c-0.234,0.655-0.537,1.427-1.286,1.731c-0.726,0.583-1.59,0.841-2.292,1.519
		c-0.583,0.092-0.443-0.562-0.841-0.795c0.047-0.817-0.7-1.31-0.958-2.01c-0.421-0.351-0.374-0.958-0.84-1.239
		c-0.049-0.584-0.586-1.051-0.328-1.684c-0.749-0.607-1.311-1.332-1.123-2.289c0.141-0.491-0.07-1.24,0.164-1.753
		c0.116-0.211,0.233-0.492,0.116-0.726c-0.513-0.188-0.911-0.678-0.747-1.239c0.021-0.257-0.28-0.492-0.491-0.562
		c-0.468,0-0.935-0.117-1.191-0.56c-0.117-0.422,0.419-0.679,0.233-1.052c-0.748-0.445-1.217-1.193-1.238-2.034
		c-0.866-0.7-0.818-1.895-1.334-2.805c-0.419-0.538-1.121-0.352-1.752-0.398c-0.188-0.14-0.047-0.28,0-0.444
		c0.653-0.232,1.379-0.35,1.916-0.888c0.772-0.351,1.66-0.421,2.361-1.005c0.281-0.07,0.514-0.141,0.771,0.047
		c0.305,0.188-0.093,0.561,0.117,0.842c-0.164,0.936,0.491,1.52,0.398,2.406c0.536,1.894,0.888,3.858,1.8,5.611
		c0.209,1.052,0.911,1.893,1.122,2.922c0.21,0.654,0.653,1.239,0.935,1.846c0.561,1.473,1.473,2.898,2.523,4.045
		c0.281-0.025,0.538-0.327,0.632-0.562c0.817-0.538,0.679-1.613,1.402-2.243c0-1.287,1.145-2.081,1.285-3.32
		c0.468-0.887,0.655-1.893,1.122-2.805c0.281-0.818,0.679-1.59,0.842-2.455c0.747-0.771,0.631-1.869,0.959-2.805
		c-0.023-0.958-1.192-1.028-1.52-1.801c0.514-1.004,1.683-1.426,2.57-2.009C83.339,60.262,84.625,59.91,84.883,60.962z
		 M57.183,60.051c0.936-0.164,1.754,0.304,2.618,0.468c0.981,0.537,1.684,1.566,1.637,2.617c0.304,0.912-0.515,1.66-0.726,2.479
		c-0.747,1.004-1.752,1.706-2.478,2.757c-0.608,0.234-1.098,0.843-1.564,1.286c-0.491,0.07-0.772,0.538-0.562,1.006
		c0.654,0.63,0.654,1.52,1.239,2.196c0.117,0.327,0.489,0.515,0.677,0.843c0.141,0.795,1.146,0.981,1.286,1.775
		c0.771,0.397,1.193,1.262,1.894,1.754c0.444,0.42,0.819,1.145,1.519,1.168c0.912,0.444,1.638,1.496,2.689,1.401
		c0.046,0.422-0.443,0.352-0.654,0.516c-0.889,0.258-1.498,1.192-2.479,1.238c-1.355,0.422-1.986-1.262-3.084-1.754
		c-0.328-0.653-1.381-0.863-1.076-1.798c-0.631-0.352-1.474-0.562-1.847-1.334c-0.889-0.583-0.912-1.754-1.894-2.243
		c-0.351-0.702-1.169-1.121-1.355-1.917c-0.046-0.467-0.864-0.467-0.608-1.052c0.258-0.583,0.936-0.397,1.285-0.958
		c0.562-0.351,1.193-0.561,1.73-1.007c1.029-0.535,1.566-1.519,2.313-2.359c0.07-0.981,0.726-2.011,0.164-2.969
		c0-0.7-0.42-1.191-0.911-1.683c-0.794-0.375-1.66-0.561-2.524-0.795c-1.052,0.234-2.081-0.233-3.133,0.117
		c-0.258-0.164-0.444,0.094-0.677,0.162c-0.562,0.422-0.164,1.24-0.444,1.801c0.164,0.491,0.164,0.959,0,1.449
		c0.023,1.24-0.023,2.666-0.164,3.811c0.491,1.169-0.07,2.431,0.28,3.599c-0.444,1.777,0,3.484-0.163,5.284
		c0.047,0.771,0.023,1.684-0.796,2.127c-0.606,0.351-1.332,0.421-1.846,0.958c-0.233-0.07-0.327,0.21-0.562,0.093
		c-0.257-0.093-0.444-0.397-0.28-0.653c0.421-0.608,0.07-1.262,0.491-1.87c0.188-1.895,0.351-3.927,0.28-5.774
		c0.375-0.562-0.093-1.659,0.842-1.8c0.21-0.115,0.468-0.303,0.514-0.56c0.094-1.263-1.495-1.918-1.121-3.25
		c-0.397-0.538-0.07-1.238-0.164-1.847c-0.327-0.747-0.047-1.752-0.444-2.478c-0.117-1.286-1.8-0.491-2.478-1.122
		c1.216-1.496,3.248-1.776,5.049-1.496c0.795,0,1.613-0.491,2.359-0.116c1.241-0.492,2.76,0,4.046-0.234L57.183,60.051z
		 M127.238,60.051c0.209,0.864-0.094,1.659-0.397,2.36c-0.211,1.334,0,2.617-0.375,3.879c0.211,0.562-0.234,1.241,0.164,1.73
		c-0.351,0.959,0.233,1.94-0.281,2.758c0.679,1.613-0.069,3.765,1.122,5.261c0.305,0.349,0.047,1.238,0.679,1.122
		c1.286,1.006,3.179,0.795,4.488-0.048c0.7-0.022,0.747-0.935,1.449-0.957c1.285-1.262,2.805-2.618,3.131-4.371
		c-0.047-1.31,0.982-2.665,0.117-3.812c-0.211-0.794,0.352-1.424,0.912-1.915c0.443-1.052-1.053-0.703-0.912-1.613
		c0.022-1.122-0.537-2.36,0.069-3.367c0.772-0.468,1.52-0.911,2.292-1.354c0.232,0.046,0.514-0.095,0.677,0.116
		c0.375,0.864-0.28,1.823-0.07,2.688c-0.28,1.004,0.374,2.127-0.325,3.038c0.606,1.005-0.468,1.965,0.045,2.97
		c0.047,0.233-0.023,0.443-0.164,0.607c0.374,0.654-0.256,1.31,0.119,1.963c-0.236,0.772-0.516,1.707-0.049,2.477
		c-0.021,1.521-0.115,2.854,0.374,4.257c0.117,0.257,0.422,0.187,0.562,0.116c0.397-0.047,0.958-0.584,1.191-0.116
		c-0.233,0.231-0.515-0.048-0.724,0.231c-0.796,0.679-1.754,1.101-2.525,1.684c-0.398,0.375-0.888,0.468-1.355,0.608
		c-0.095-0.257-0.258-0.491-0.281-0.771c0-1.707,0.187-3.414-0.117-5.05c-0.325,0-0.489,0.421-0.771,0.491
		c-0.304,0.584-0.981,0.467-1.355,0.957c-0.281,0.281-0.794,0.537-0.958,0.959c-0.771,0.187-1.402,0.679-2.011,1.287
		c-1.122,0.186-1.939,1.074-3.039,1.285c-0.49,0.188-1.028,0.303-1.52,0.56c-0.935-0.046-1.892-0.233-2.455-1.121
		c-0.069-0.421-0.49-0.7-0.723-1.052c0.094-0.865-0.421-1.542-0.234-2.361c-0.514-1.775,0.047-3.717-0.047-5.493
		c0.281-0.422,0.281-0.864,0.047-1.309c-0.094-1.566,0.211-3.155-0.047-4.582c0.305-0.632-0.304-1.191-0.188-1.8
		c-0.42-0.817-1.473-0.537-2.174-0.678c-0.279-0.188-0.258-0.585-0.162-0.842c0.396-0.607,1.145-0.396,1.611-0.841
		c0.632,0.163,1.121-0.305,1.637-0.047c0.491-0.047,1.006-0.421,1.52-0.117C126.489,59.699,127.166,59.583,127.238,60.051z
		 M36.707,59.56c0.818,0.117,1.565,0.421,2.336,0.678c0.234,0.303,0.632,0.234,0.913,0.443c1.122,0.913,2.477,2.058,2.922,3.413
		c0.724,0.913,0.374,2.245,0.935,3.202c0.188,1.591,0,3.32-0.49,4.77c-0.164,1.121-1.1,1.939-1.473,2.969
		c-0.374,0.981-1.426,1.52-2.127,2.36c-1.403,1.543-3.297,1.848-4.934,2.852c-0.42,0.07-0.887,0.537-1.283,0.117
		c-1.311,0.771-2.783,0.42-4.21,0.513c-1.075-0.302-2.196-0.442-3.086-1.191c-0.513,0.047-0.699-0.606-1.191-0.606
		c-0.679-0.702-1.613-1.052-1.776-2.082c-0.606-0.91-1.682-1.519-1.4-2.805c-0.445-0.397-0.377-0.794-0.469-1.332
		c0.117-0.794-0.141-1.589-0.21-2.36c0.21-1.053,0.21-2.198,0.679-3.155c-0.211-0.913,0.84-1.192,0.887-2.011
		c0.865-0.888,1.191-2.08,2.29-2.759c1.03-0.771,2.011-1.659,3.202-2.011c1.005-0.068,1.918-0.724,2.923-0.957
		c0.606-0.117,1.309,0.022,1.8-0.328C34.205,59.14,35.444,59.489,36.707,59.56z M158.162,60.004l0.653,0.444
		c0.491,0.981-0.887,1.473-0.325,2.407c-0.281,0.397-0.234,0.981-0.796,1.122c-0.49,0.21-0.959,0.491-1.566,0.468
		c-0.256-0.608-0.188-1.31-0.279-1.964c-0.397-0.912-1.449-0.982-2.175-1.474c-1.216,0.281-2.431-0.56-3.366,0.281
		c-1.122,0-1.332,1.263-1.752,1.964c-0.046,1.192,0.887,2.01,1.355,2.922c0.725,0.115,0.56,0.958,1.052,1.286
		c1.66,0.28,2.524,2.103,4.16,2.407c1.612,1.168,3.718,1.846,4.815,3.646c0.117,0.328,0.07,0.725-0.164,0.958
		c-0.023,0.538,0.048,1.099-0.49,1.473c-0.328,0.702-1.075,1.263-1.637,1.777c-0.63,0.117-0.912,1.027-1.564,1.027
		c-0.469,0.164-0.772,0.653-1.355,0.562c-0.516,0.42-1.03,0.865-1.732,0.841c-0.606,0.562-1.541,0.281-2.196,0.654
		c-0.981,0.069-1.776,0.047-2.734,0.117c-1.007,0-1.848-0.49-2.524-1.123c-0.141-1.074-0.21-1.985-0.187-3.132
		c0.304-0.724,1.121-0.864,1.636-1.402c0.724-0.141,0.442,0.749,0.677,1.121c-0.07,0.608,0.352,1.03,0.328,1.615
		c1.146,0.958,2.477,1.707,4.043,1.309c0.562-0.116,1.192-0.023,1.684-0.28c0.981,0.023,1.707-1.101,2.477-1.684
		c0.328-0.608,0.632-1.191,0.656-1.917c-0.374-0.747-0.96-1.707-1.848-1.963c-1.075-0.771-2.267-1.309-3.294-2.127
		c-0.375-0.842-1.334-0.678-1.918-1.239c-1.076-0.585-1.964-1.613-3.039-2.243c-0.42-0.444-0.443-1.076-0.936-1.52
		c-0.256-0.959-0.068-1.8,0.28-2.643c0.538-1.332,1.965-1.963,3.086-2.688c1.216-0.468,2.386-1.051,3.647-1.448
		c0.373-0.281,0.957-0.141,1.402-0.352C155.614,59.256,156.924,59.536,158.162,60.004z M14.71,59.278
		c0.749,0.164,1.357-0.21,1.965,0.164c0.771,0.164,1.821,0.023,2.407,0.842c0.163,1.239-0.256,2.524-0.445,3.764
		c-0.63,0.14-1.263,0.959-1.916,0.327c-0.374-0.397-0.187-1.028-0.397-1.52c-0.84-0.911-1.895-1.496-3.086-1.402
		c-0.326-0.305-0.653-0.094-1.121-0.164c-1.449-0.468-2.875,0.164-4.254,0.351c-0.747,0.117-1.285,0.701-2.08,0.725
		c-0.421,0.749-1.381,0.982-1.612,1.8c-0.819,0.935-0.96,2.175-1.312,3.297c0.049,0.583-0.302,1.099-0.091,1.683
		c-0.048,3.156,1.191,6.148,3.81,8.018c0.538,0.257,1.051,0.538,1.564,0.91c0.703,0.749,1.871,0.352,2.688,0.772
		c0.515,0.28,1.075,0,1.638,0.188c1.308,0.233,2.734-0.188,3.855-0.352c0.492-0.608,1.451-0.116,1.87-0.888
		c0.724-0.467,1.333-1.076,1.895-1.565c0.302-0.07,0.56,0.07,0.678,0.327c-0.095,0.818-1.029,1.075-1.45,1.635
		c-1.027,0.562-2.033,1.355-3.203,1.684c-1.098,0.421-2.102,1.004-3.364,1.004c-1.333,0.516-2.876,0.188-4.325,0.281
		c-0.654-0.07-1.146-0.56-1.846-0.442c-1.402-0.773-3.016-1.239-4.045-2.644c-0.725-0.724-1.027-1.635-1.636-2.407
		c-0.397-1.074-0.817-2.222-0.724-3.437c-0.26-1.052-0.26-2.384,0.232-3.411c0.07-1.45,0.491-2.898,1.448-4.044l1.638-1.917
		c1.309-1.122,2.898-1.496,4.207-2.618c0.98-0.327,1.94-0.748,3.086-0.748c1.217-0.35,2.432-0.211,3.762-0.327L14.71,59.278z"/>
	<g>
		<path fill-rule="evenodd" clip-rule="evenodd" fill="#9A9A9A" d="M48.844,89.252v-3.716h-0.852v3.676
			c0,0.747-0.463,1.211-1.164,1.211s-1.157-0.464-1.157-1.211v-3.676H44.82v3.716c0,1.156,0.867,1.936,2.008,1.936
			S48.844,90.408,48.844,89.252z"/>
		<polygon fill-rule="evenodd" clip-rule="evenodd" fill="#9A9A9A" points="56.011,91.139 56.011,85.536 55.16,85.536 55.16,89.471 
			52.572,85.536 51.793,85.536 51.793,91.139 52.643,91.139 52.643,87.197 55.232,91.139 		"/>
		<rect x="59.047" y="85.536" fill-rule="evenodd" clip-rule="evenodd" fill="#9A9A9A" width="0.852" height="5.603"/>
		<polygon fill-rule="evenodd" clip-rule="evenodd" fill="#9A9A9A" points="66.604,85.536 65.707,85.536 64.417,89.613 
			63.126,85.536 62.243,85.536 64.086,91.139 64.746,91.139 		"/>
		<polygon fill-rule="evenodd" clip-rule="evenodd" fill="#9A9A9A" points="72.531,91.139 72.531,90.376 69.8,90.376 69.8,88.691 
			72.129,88.691 72.129,87.938 69.8,87.938 69.8,86.299 72.531,86.299 72.531,85.536 68.95,85.536 68.95,91.139 		"/>
		<path fill-rule="evenodd" clip-rule="evenodd" fill="#9A9A9A" d="M79.352,91.139l-1.289-2.478
			c0.629-0.173,1.116-0.685,1.116-1.488c0-0.952-0.678-1.637-1.738-1.637h-2.174v5.603h0.851v-2.36h1.062l1.181,2.36H79.352z
			 M78.328,87.181c0,0.551-0.386,0.874-0.952,0.874h-1.259v-1.756h1.259C77.942,86.299,78.328,86.63,78.328,87.181z"/>
		<path fill-rule="evenodd" clip-rule="evenodd" fill="#9A9A9A" d="M85.496,89.541c0-0.479-0.148-0.88-0.456-1.148
			c-0.235-0.212-0.527-0.338-1.047-0.416l-0.637-0.094c-0.26-0.041-0.488-0.135-0.63-0.261c-0.148-0.134-0.212-0.315-0.212-0.52
			c0-0.496,0.363-0.872,1.023-0.872c0.473,0,0.873,0.1,1.22,0.432l0.543-0.536c-0.48-0.448-1-0.637-1.739-0.637
			c-1.166,0-1.874,0.669-1.874,1.645c0,0.456,0.136,0.81,0.409,1.07c0.244,0.229,0.606,0.386,1.062,0.448l0.661,0.095
			c0.331,0.048,0.474,0.103,0.614,0.237c0.148,0.134,0.221,0.337,0.221,0.582c0,0.543-0.425,0.856-1.156,0.856
			c-0.574,0-1.023-0.125-1.433-0.535l-0.567,0.56c0.535,0.543,1.142,0.74,1.982,0.74C84.655,91.188,85.496,90.572,85.496,89.541z"/>
		<rect x="88.212" y="85.536" fill-rule="evenodd" clip-rule="evenodd" fill="#9A9A9A" width="0.85" height="5.603"/>
		<polygon fill-rule="evenodd" clip-rule="evenodd" fill="#9A9A9A" points="95.539,86.299 95.539,85.536 91.604,85.536 
			91.604,86.299 93.147,86.299 93.147,91.139 93.997,91.139 93.997,86.299 		"/>
		<polygon fill-rule="evenodd" clip-rule="evenodd" fill="#9A9A9A" points="101.591,85.536 100.662,85.536 99.489,88 98.316,85.536 
			97.387,85.536 99.064,88.834 99.064,91.139 99.914,91.139 99.914,88.834 		"/>
		<path fill-rule="evenodd" clip-rule="evenodd" fill="#9A9A9A" d="M110.446,89.142c0-0.669-0.095-1.173-0.474-1.566
			c-0.26-0.269-0.652-0.473-1.195-0.473s-0.929,0.204-1.189,0.473c-0.377,0.394-0.471,0.897-0.471,1.566
			c0,0.676,0.094,1.18,0.471,1.574c0.261,0.266,0.646,0.472,1.189,0.472s0.936-0.206,1.195-0.472
			C110.352,90.321,110.446,89.817,110.446,89.142z M109.643,89.142c0,0.433-0.031,0.849-0.274,1.094
			c-0.149,0.148-0.355,0.235-0.591,0.235c-0.236,0-0.434-0.087-0.584-0.235c-0.243-0.245-0.274-0.661-0.274-1.094
			c0-0.435,0.031-0.852,0.274-1.095c0.15-0.15,0.348-0.229,0.584-0.229c0.235,0,0.441,0.078,0.591,0.229
			C109.611,88.29,109.643,88.707,109.643,89.142z"/>
		<path fill-rule="evenodd" clip-rule="evenodd" fill="#9A9A9A" d="M114.828,87.834v-0.613h-0.795v-0.574
			c0-0.291,0.141-0.465,0.44-0.465h0.354v-0.686h-0.504c-0.748,0-1.094,0.536-1.094,1.11v0.614h-0.456v0.613h0.456v3.305h0.803
			v-3.305H114.828z"/>
	</g>
	<g>
		<path fill-rule="evenodd" clip-rule="evenodd" fill="#9A9A9A" d="M48.791,98.361c0-0.708-0.41-1.125-0.843-1.298
			c0.376-0.151,0.755-0.583,0.755-1.188c0-0.944-0.653-1.535-1.692-1.535h-2.18v5.603H47.1
			C48.089,99.943,48.791,99.393,48.791,98.361z M47.854,95.906c0,0.52-0.371,0.803-0.913,0.803h-1.259v-1.605h1.259
			C47.482,95.104,47.854,95.388,47.854,95.906z M47.939,98.322c0,0.496-0.33,0.858-0.92,0.858h-1.338v-1.707h1.338
			C47.609,97.474,47.939,97.826,47.939,98.322z"/>
		<path fill-rule="evenodd" clip-rule="evenodd" fill="#9A9A9A" d="M58.511,98.055v-3.714H57.66v3.676
			c0,0.747-0.463,1.211-1.164,1.211c-0.7,0-1.157-0.464-1.157-1.211v-3.676h-0.851v3.714c0,1.157,0.866,1.938,2.008,1.938
			S58.511,99.212,58.511,98.055z"/>
		<path fill-rule="evenodd" clip-rule="evenodd" fill="#9A9A9A" d="M68.398,97.104c0-0.812,0.038-1.63-0.567-2.235
			c-0.355-0.354-0.866-0.527-1.449-0.527h-1.968v5.603h1.968c0.583,0,1.094-0.173,1.449-0.525
			C68.437,98.811,68.398,97.914,68.398,97.104z M67.547,97.104c0,0.771-0.008,1.377-0.3,1.699c-0.235,0.26-0.551,0.378-0.951,0.378
			h-1.03v-4.077h1.03c0.4,0,0.716,0.119,0.951,0.379C67.539,95.805,67.547,96.332,67.547,97.104z"/>
		<path fill-rule="evenodd" clip-rule="evenodd" fill="#9A9A9A" d="M78.228,99.943l-2.053-5.603h-0.687l-2.054,5.603h0.905
			l0.386-1.125h2.212l0.384,1.125H78.228z M76.7,98.095h-1.723l0.874-2.487L76.7,98.095z"/>
		<path fill-rule="evenodd" clip-rule="evenodd" fill="#9A9A9A" d="M87.472,96.04c0-0.976-0.701-1.699-1.795-1.699h-2.126v5.603
			h0.849V97.74h1.277C86.771,97.74,87.472,97.017,87.472,96.04z M86.621,96.04c0,0.59-0.401,0.93-0.992,0.93h-1.229v-1.866h1.229
			C86.22,95.104,86.621,95.45,86.621,96.04z"/>
		<polygon fill-rule="evenodd" clip-rule="evenodd" fill="#9A9A9A" points="96.61,99.943 96.61,99.181 93.879,99.181 93.879,97.497 
			96.209,97.497 96.209,96.742 93.879,96.742 93.879,95.104 96.61,95.104 96.61,94.341 93.028,94.341 93.028,99.943 		"/>
		<path fill-rule="evenodd" clip-rule="evenodd" fill="#9A9A9A" d="M105.805,98.346c0-0.48-0.15-0.881-0.459-1.148
			c-0.234-0.213-0.525-0.338-1.045-0.416l-0.637-0.096c-0.261-0.039-0.49-0.134-0.631-0.26c-0.149-0.135-0.212-0.314-0.212-0.52
			c0-0.495,0.36-0.874,1.022-0.874c0.473,0,0.873,0.103,1.221,0.434l0.542-0.534c-0.479-0.45-0.999-0.639-1.739-0.639
			c-1.164,0-1.873,0.669-1.873,1.646c0,0.457,0.135,0.81,0.41,1.07c0.244,0.228,0.605,0.386,1.062,0.449l0.66,0.094
			c0.331,0.047,0.472,0.102,0.615,0.235c0.148,0.135,0.219,0.339,0.219,0.584c0,0.541-0.425,0.856-1.156,0.856
			c-0.574,0-1.022-0.126-1.432-0.535l-0.567,0.559c0.535,0.544,1.141,0.741,1.983,0.741
			C104.961,99.992,105.805,99.379,105.805,98.346z"/>
		<polygon fill-rule="evenodd" clip-rule="evenodd" fill="#9A9A9A" points="114.911,95.104 114.911,94.341 110.978,94.341 
			110.978,95.104 112.518,95.104 112.518,99.943 113.369,99.943 113.369,95.104 		"/>
	</g>
</g>
</svg>
